%TF.GenerationSoftware,KiCad,Pcbnew,(6.0.1)*%
%TF.CreationDate,2022-03-22T21:47:25-04:00*%
%TF.ProjectId,Looking Glass,4c6f6f6b-696e-4672-9047-6c6173732e6b,rev?*%
%TF.SameCoordinates,Original*%
%TF.FileFunction,Copper,L1,Top*%
%TF.FilePolarity,Positive*%
%FSLAX46Y46*%
G04 Gerber Fmt 4.6, Leading zero omitted, Abs format (unit mm)*
G04 Created by KiCad (PCBNEW (6.0.1)) date 2022-03-22 21:47:25*
%MOMM*%
%LPD*%
G01*
G04 APERTURE LIST*
G04 Aperture macros list*
%AMRoundRect*
0 Rectangle with rounded corners*
0 $1 Rounding radius*
0 $2 $3 $4 $5 $6 $7 $8 $9 X,Y pos of 4 corners*
0 Add a 4 corners polygon primitive as box body*
4,1,4,$2,$3,$4,$5,$6,$7,$8,$9,$2,$3,0*
0 Add four circle primitives for the rounded corners*
1,1,$1+$1,$2,$3*
1,1,$1+$1,$4,$5*
1,1,$1+$1,$6,$7*
1,1,$1+$1,$8,$9*
0 Add four rect primitives between the rounded corners*
20,1,$1+$1,$2,$3,$4,$5,0*
20,1,$1+$1,$4,$5,$6,$7,0*
20,1,$1+$1,$6,$7,$8,$9,0*
20,1,$1+$1,$8,$9,$2,$3,0*%
G04 Aperture macros list end*
%TA.AperFunction,SMDPad,CuDef*%
%ADD10RoundRect,0.250000X0.375000X0.625000X-0.375000X0.625000X-0.375000X-0.625000X0.375000X-0.625000X0*%
%TD*%
%TA.AperFunction,ComponentPad*%
%ADD11R,3.500000X3.500000*%
%TD*%
%TA.AperFunction,ComponentPad*%
%ADD12RoundRect,0.750000X0.750000X1.000000X-0.750000X1.000000X-0.750000X-1.000000X0.750000X-1.000000X0*%
%TD*%
%TA.AperFunction,ComponentPad*%
%ADD13RoundRect,0.875000X0.875000X0.875000X-0.875000X0.875000X-0.875000X-0.875000X0.875000X-0.875000X0*%
%TD*%
%TA.AperFunction,ComponentPad*%
%ADD14R,1.700000X1.700000*%
%TD*%
%TA.AperFunction,ComponentPad*%
%ADD15O,1.700000X1.700000*%
%TD*%
%TA.AperFunction,SMDPad,CuDef*%
%ADD16R,0.939800X2.489200*%
%TD*%
%TA.AperFunction,SMDPad,CuDef*%
%ADD17R,5.562600X6.299200*%
%TD*%
%TA.AperFunction,SMDPad,CuDef*%
%ADD18C,2.000000*%
%TD*%
%TA.AperFunction,SMDPad,CuDef*%
%ADD19RoundRect,0.062500X-0.062500X0.350000X-0.062500X-0.350000X0.062500X-0.350000X0.062500X0.350000X0*%
%TD*%
%TA.AperFunction,SMDPad,CuDef*%
%ADD20RoundRect,0.062500X-0.350000X0.062500X-0.350000X-0.062500X0.350000X-0.062500X0.350000X0.062500X0*%
%TD*%
%TA.AperFunction,SMDPad,CuDef*%
%ADD21R,2.600000X2.600000*%
%TD*%
%TA.AperFunction,SMDPad,CuDef*%
%ADD22RoundRect,0.135000X-0.135000X-0.185000X0.135000X-0.185000X0.135000X0.185000X-0.135000X0.185000X0*%
%TD*%
%TA.AperFunction,SMDPad,CuDef*%
%ADD23RoundRect,0.218750X-0.381250X0.218750X-0.381250X-0.218750X0.381250X-0.218750X0.381250X0.218750X0*%
%TD*%
%TA.AperFunction,SMDPad,CuDef*%
%ADD24R,0.850900X0.304800*%
%TD*%
%TA.AperFunction,SMDPad,CuDef*%
%ADD25R,0.450000X1.300000*%
%TD*%
%TA.AperFunction,ComponentPad*%
%ADD26O,1.450000X2.000000*%
%TD*%
%TA.AperFunction,ComponentPad*%
%ADD27O,1.150000X1.800000*%
%TD*%
%TA.AperFunction,SMDPad,CuDef*%
%ADD28RoundRect,0.250000X-0.475000X0.250000X-0.475000X-0.250000X0.475000X-0.250000X0.475000X0.250000X0*%
%TD*%
%TA.AperFunction,SMDPad,CuDef*%
%ADD29RoundRect,0.135000X0.135000X0.185000X-0.135000X0.185000X-0.135000X-0.185000X0.135000X-0.185000X0*%
%TD*%
%TA.AperFunction,SMDPad,CuDef*%
%ADD30RoundRect,0.075000X0.075000X-0.125000X0.075000X0.125000X-0.075000X0.125000X-0.075000X-0.125000X0*%
%TD*%
%TA.AperFunction,SMDPad,CuDef*%
%ADD31R,0.800000X1.000000*%
%TD*%
%TA.AperFunction,SMDPad,CuDef*%
%ADD32R,1.500000X0.700000*%
%TD*%
%TA.AperFunction,SMDPad,CuDef*%
%ADD33RoundRect,0.135000X-0.185000X0.135000X-0.185000X-0.135000X0.185000X-0.135000X0.185000X0.135000X0*%
%TD*%
%TA.AperFunction,SMDPad,CuDef*%
%ADD34RoundRect,0.150000X0.150000X-0.587500X0.150000X0.587500X-0.150000X0.587500X-0.150000X-0.587500X0*%
%TD*%
%TA.AperFunction,ComponentPad*%
%ADD35R,1.270000X1.270000*%
%TD*%
%TA.AperFunction,ComponentPad*%
%ADD36C,1.270000*%
%TD*%
%TA.AperFunction,SMDPad,CuDef*%
%ADD37RoundRect,0.250000X-0.250000X-0.475000X0.250000X-0.475000X0.250000X0.475000X-0.250000X0.475000X0*%
%TD*%
%TA.AperFunction,SMDPad,CuDef*%
%ADD38RoundRect,0.225000X-0.225000X-0.250000X0.225000X-0.250000X0.225000X0.250000X-0.225000X0.250000X0*%
%TD*%
%TA.AperFunction,SMDPad,CuDef*%
%ADD39RoundRect,0.075000X0.125000X0.075000X-0.125000X0.075000X-0.125000X-0.075000X0.125000X-0.075000X0*%
%TD*%
%TA.AperFunction,SMDPad,CuDef*%
%ADD40RoundRect,0.150000X-0.512500X-0.150000X0.512500X-0.150000X0.512500X0.150000X-0.512500X0.150000X0*%
%TD*%
%TA.AperFunction,SMDPad,CuDef*%
%ADD41R,2.000000X0.900000*%
%TD*%
%TA.AperFunction,SMDPad,CuDef*%
%ADD42R,0.900000X2.000000*%
%TD*%
%TA.AperFunction,SMDPad,CuDef*%
%ADD43R,5.000000X5.000000*%
%TD*%
%TA.AperFunction,ComponentPad*%
%ADD44C,8.600000*%
%TD*%
%TA.AperFunction,ComponentPad*%
%ADD45C,0.900000*%
%TD*%
%TA.AperFunction,SMDPad,CuDef*%
%ADD46RoundRect,0.250000X0.250000X0.475000X-0.250000X0.475000X-0.250000X-0.475000X0.250000X-0.475000X0*%
%TD*%
%TA.AperFunction,SMDPad,CuDef*%
%ADD47R,2.000000X1.500000*%
%TD*%
%TA.AperFunction,SMDPad,CuDef*%
%ADD48R,2.000000X3.800000*%
%TD*%
%TA.AperFunction,SMDPad,CuDef*%
%ADD49RoundRect,0.100000X0.130000X0.100000X-0.130000X0.100000X-0.130000X-0.100000X0.130000X-0.100000X0*%
%TD*%
%TA.AperFunction,SMDPad,CuDef*%
%ADD50RoundRect,0.250000X-0.650000X0.325000X-0.650000X-0.325000X0.650000X-0.325000X0.650000X0.325000X0*%
%TD*%
%TA.AperFunction,SMDPad,CuDef*%
%ADD51RoundRect,0.250000X-0.312500X-0.625000X0.312500X-0.625000X0.312500X0.625000X-0.312500X0.625000X0*%
%TD*%
%TA.AperFunction,SMDPad,CuDef*%
%ADD52RoundRect,0.140000X0.140000X0.170000X-0.140000X0.170000X-0.140000X-0.170000X0.140000X-0.170000X0*%
%TD*%
%TA.AperFunction,SMDPad,CuDef*%
%ADD53RoundRect,0.250000X0.325000X0.650000X-0.325000X0.650000X-0.325000X-0.650000X0.325000X-0.650000X0*%
%TD*%
%TA.AperFunction,ComponentPad*%
%ADD54R,1.800000X1.800000*%
%TD*%
%TA.AperFunction,ComponentPad*%
%ADD55C,1.800000*%
%TD*%
%TA.AperFunction,ComponentPad*%
%ADD56C,1.879600*%
%TD*%
%TA.AperFunction,SMDPad,CuDef*%
%ADD57RoundRect,0.150000X-0.150000X0.587500X-0.150000X-0.587500X0.150000X-0.587500X0.150000X0.587500X0*%
%TD*%
%TA.AperFunction,ViaPad*%
%ADD58C,1.000000*%
%TD*%
%TA.AperFunction,ViaPad*%
%ADD59C,0.800000*%
%TD*%
%TA.AperFunction,Conductor*%
%ADD60C,1.000000*%
%TD*%
%TA.AperFunction,Conductor*%
%ADD61C,0.500000*%
%TD*%
%TA.AperFunction,Conductor*%
%ADD62C,0.400000*%
%TD*%
%TA.AperFunction,Conductor*%
%ADD63C,0.300000*%
%TD*%
G04 APERTURE END LIST*
%TO.C,NT1*%
G36*
X40500000Y-114758900D02*
G01*
X36500000Y-114758900D01*
X36500000Y-112758900D01*
X40500000Y-112758900D01*
X40500000Y-114758900D01*
G37*
%TD*%
D10*
%TO.P,F1,1*%
%TO.N,+12V*%
X83950000Y-125345000D03*
%TO.P,F1,2*%
%TO.N,Net-(C2-Pad1)*%
X81150000Y-125345000D03*
%TD*%
D11*
%TO.P,J8,1*%
%TO.N,+12V*%
X59500000Y-117700000D03*
D12*
%TO.P,J8,2*%
%TO.N,GND*%
X65500000Y-117700000D03*
D13*
%TO.P,J8,3*%
%TO.N,N/C*%
X62500000Y-113000000D03*
%TD*%
D14*
%TO.P,J4,1,Pin_1*%
%TO.N,+5V*%
X43725000Y-102500000D03*
D15*
%TO.P,J4,2,Pin_2*%
%TO.N,GND*%
X46265000Y-102500000D03*
%TD*%
D16*
%TO.P,U2,1,IN*%
%TO.N,+12V*%
X36014000Y-126988100D03*
%TO.P,U2,2,GND*%
%TO.N,GND*%
X40586000Y-126988100D03*
D17*
%TO.P,U2,3,OUT*%
%TO.N,+5V*%
X38300000Y-118834700D03*
%TD*%
D18*
%TO.P,NT1,1,1*%
%TO.N,Net-(NT1-Pad1)*%
X40500000Y-113758900D03*
%TO.P,NT1,2,2*%
%TO.N,+5V*%
X36500000Y-113758900D03*
%TD*%
D19*
%TO.P,U6,1,~{RI}*%
%TO.N,unconnected-(U6-Pad1)*%
X57250000Y-148062500D03*
%TO.P,U6,2,GND*%
%TO.N,GND*%
X56750000Y-148062500D03*
%TO.P,U6,3,D+*%
%TO.N,Net-(J5-Pad3)*%
X56250000Y-148062500D03*
%TO.P,U6,4,D-*%
%TO.N,Net-(J5-Pad2)*%
X55750000Y-148062500D03*
%TO.P,U6,5,VIO*%
%TO.N,+3V3*%
X55250000Y-148062500D03*
%TO.P,U6,6,VDD*%
X54750000Y-148062500D03*
D20*
%TO.P,U6,7,REGIN*%
X54062500Y-148750000D03*
%TO.P,U6,8,VBUS*%
X54062500Y-149250000D03*
%TO.P,U6,9,~{RST}*%
%TO.N,unconnected-(U6-Pad9)*%
X54062500Y-149750000D03*
%TO.P,U6,10,NC*%
%TO.N,unconnected-(U6-Pad10)*%
X54062500Y-150250000D03*
%TO.P,U6,11,GPIO.3*%
%TO.N,unconnected-(U6-Pad11)*%
X54062500Y-150750000D03*
%TO.P,U6,12,RS485/GPIO.2*%
%TO.N,unconnected-(U6-Pad12)*%
X54062500Y-151250000D03*
D19*
%TO.P,U6,13,RXT/GPIO.1*%
%TO.N,unconnected-(U6-Pad13)*%
X54750000Y-151937500D03*
%TO.P,U6,14,TXT/GPIO.0*%
%TO.N,unconnected-(U6-Pad14)*%
X55250000Y-151937500D03*
%TO.P,U6,15,~{SUSPEND}*%
%TO.N,unconnected-(U6-Pad15)*%
X55750000Y-151937500D03*
%TO.P,U6,16,VPP*%
%TO.N,unconnected-(U6-Pad16)*%
X56250000Y-151937500D03*
%TO.P,U6,17,SUSPEND*%
%TO.N,unconnected-(U6-Pad17)*%
X56750000Y-151937500D03*
%TO.P,U6,18,~{CTS}*%
%TO.N,unconnected-(U6-Pad18)*%
X57250000Y-151937500D03*
D20*
%TO.P,U6,19,~{RTS}*%
%TO.N,RTS*%
X57937500Y-151250000D03*
%TO.P,U6,20,RXD*%
%TO.N,TXD0*%
X57937500Y-150750000D03*
%TO.P,U6,21,TXD*%
%TO.N,RXD0*%
X57937500Y-150250000D03*
%TO.P,U6,22,~{DSR}*%
%TO.N,unconnected-(U6-Pad22)*%
X57937500Y-149750000D03*
%TO.P,U6,23,~{DTR}*%
%TO.N,DTR*%
X57937500Y-149250000D03*
%TO.P,U6,24,~{DCD}*%
%TO.N,unconnected-(U6-Pad24)*%
X57937500Y-148750000D03*
D21*
%TO.P,U6,25,GND*%
%TO.N,GND*%
X56000000Y-150000000D03*
%TD*%
D22*
%TO.P,R3,1*%
%TO.N,Net-(Q2-Pad1)*%
X51990000Y-138460000D03*
%TO.P,R3,2*%
%TO.N,DTR*%
X53010000Y-138460000D03*
%TD*%
D23*
%TO.P,FB1,1*%
%TO.N,Net-(C5-Pad1)*%
X56450000Y-140137500D03*
%TO.P,FB1,2*%
%TO.N,+3V3*%
X56450000Y-142262500D03*
%TD*%
D24*
%TO.P,U7,1,NC_2*%
%TO.N,unconnected-(U7-Pad1)*%
X50022680Y-121147700D03*
%TO.P,U7,2,GND*%
%TO.N,GND*%
X50022680Y-120500000D03*
%TO.P,U7,3,VOUT*%
%TO.N,Net-(R6-Pad2)*%
X50022680Y-119852300D03*
%TO.P,U7,4,VDD*%
%TO.N,+5V*%
X47777320Y-119852300D03*
%TO.P,U7,5,NC*%
%TO.N,unconnected-(U7-Pad5)*%
X47777320Y-121147700D03*
%TD*%
D14*
%TO.P,J3,1,Pin_1*%
%TO.N,+3V3*%
X32600000Y-141700000D03*
D15*
%TO.P,J3,2,Pin_2*%
%TO.N,GND*%
X32600000Y-139160000D03*
%TD*%
D25*
%TO.P,J5,1,VBUS*%
%TO.N,+3V3*%
X48745000Y-157095000D03*
%TO.P,J5,2,D-*%
%TO.N,Net-(J5-Pad2)*%
X49395000Y-157095000D03*
%TO.P,J5,3,D+*%
%TO.N,Net-(J5-Pad3)*%
X50045000Y-157095000D03*
%TO.P,J5,4,ID*%
%TO.N,unconnected-(J5-Pad4)*%
X50695000Y-157095000D03*
%TO.P,J5,5,GND*%
%TO.N,GND*%
X51345000Y-157095000D03*
D26*
%TO.P,J5,6,Shield*%
%TO.N,unconnected-(J5-Pad6)*%
X53770000Y-157145000D03*
D27*
X46170000Y-160945000D03*
D26*
X46320000Y-157145000D03*
D27*
X53920000Y-160945000D03*
%TD*%
D28*
%TO.P,C8,1*%
%TO.N,+3V3*%
X49850000Y-149050000D03*
%TO.P,C8,2*%
%TO.N,GND*%
X49850000Y-150950000D03*
%TD*%
D29*
%TO.P,R6,1*%
%TO.N,Net-(C12-Pad1)*%
X52760000Y-119850000D03*
%TO.P,R6,2*%
%TO.N,Net-(R6-Pad2)*%
X51740000Y-119850000D03*
%TD*%
D30*
%TO.P,C6,1*%
%TO.N,+5V*%
X41850000Y-116675000D03*
%TO.P,C6,2*%
%TO.N,GND*%
X41850000Y-116175000D03*
%TD*%
D29*
%TO.P,R2,1*%
%TO.N,Net-(Q1-Pad1)*%
X50910000Y-138460000D03*
%TO.P,R2,2*%
%TO.N,RTS*%
X49890000Y-138460000D03*
%TD*%
D28*
%TO.P,C9,1*%
%TO.N,+3V3*%
X52000000Y-149050000D03*
%TO.P,C9,2*%
%TO.N,GND*%
X52000000Y-150950000D03*
%TD*%
D14*
%TO.P,J7,1,Pin_1*%
%TO.N,SCI*%
X54425000Y-169800000D03*
D15*
%TO.P,J7,2,Pin_2*%
%TO.N,SDA*%
X56965000Y-169800000D03*
%TO.P,J7,3,Pin_3*%
%TO.N,unconnected-(J7-Pad3)*%
X59505000Y-169800000D03*
%TO.P,J7,4,Pin_4*%
%TO.N,IO15_A8*%
X62045000Y-169800000D03*
%TO.P,J7,5,Pin_5*%
%TO.N,IO13_A12*%
X64585000Y-169800000D03*
%TO.P,J7,6,Pin_6*%
%TO.N,IO12_A11*%
X67125000Y-169800000D03*
%TO.P,J7,7,Pin_7*%
%TO.N,IO14_A6*%
X69665000Y-169800000D03*
%TO.P,J7,8,Pin_8*%
%TO.N,IO27_A10*%
X72205000Y-169800000D03*
%TO.P,J7,9,Pin_9*%
%TO.N,IO33_A9*%
X74745000Y-169800000D03*
%TO.P,J7,10,Pin_10*%
%TO.N,IO32_A7*%
X77285000Y-169800000D03*
%TO.P,J7,11,Pin_11*%
%TO.N,unconnected-(J7-Pad11)*%
X79825000Y-169800000D03*
%TO.P,J7,12,Pin_12*%
%TO.N,unconnected-(J7-Pad12)*%
X82365000Y-169800000D03*
%TD*%
D31*
%TO.P,SW1,*%
%TO.N,*%
X33270000Y-145250000D03*
X35480000Y-152550000D03*
X33270000Y-152550000D03*
X35480000Y-145250000D03*
D32*
%TO.P,SW1,1,1*%
%TO.N,GND*%
X36130000Y-146650000D03*
%TO.P,SW1,2,2*%
%TO.N,RESET*%
X36130000Y-149650000D03*
%TO.P,SW1,3*%
%TO.N,N/C*%
X36130000Y-151150000D03*
%TD*%
D33*
%TO.P,R4,1*%
%TO.N,Net-(PHOTO1-Pad1)*%
X52800000Y-115000000D03*
%TO.P,R4,2*%
%TO.N,GND*%
X52800000Y-116020000D03*
%TD*%
D34*
%TO.P,Q1,1,B*%
%TO.N,Net-(Q1-Pad1)*%
X54650000Y-136337500D03*
%TO.P,Q1,2,E*%
%TO.N,DTR*%
X56550000Y-136337500D03*
%TO.P,Q1,3,C*%
%TO.N,GPIO0*%
X55600000Y-134462500D03*
%TD*%
D35*
%TO.P,U5,1,GND*%
%TO.N,GND*%
X47712700Y-132340000D03*
D36*
%TO.P,U5,2,OUT*%
%TO.N,Net-(R5-Pad2)*%
X45172700Y-129800000D03*
%TO.P,U5,3,VDD*%
%TO.N,+5V*%
X47712700Y-127260000D03*
%TD*%
D37*
%TO.P,C13,1*%
%TO.N,RESET*%
X38450000Y-149700000D03*
%TO.P,C13,2*%
%TO.N,GND*%
X40350000Y-149700000D03*
%TD*%
D14*
%TO.P,J2,1,Pin_1*%
%TO.N,+2V8*%
X32600000Y-135100000D03*
D15*
%TO.P,J2,2,Pin_2*%
%TO.N,GND*%
X32600000Y-132560000D03*
%TD*%
D14*
%TO.P,J1,1,Pin_1*%
%TO.N,+12V*%
X50050000Y-102500000D03*
D15*
%TO.P,J1,2,Pin_2*%
%TO.N,GND*%
X52590000Y-102500000D03*
%TD*%
D38*
%TO.P,C3,1*%
%TO.N,+12V*%
X36025000Y-129458900D03*
%TO.P,C3,2*%
%TO.N,GND*%
X37575000Y-129458900D03*
%TD*%
D29*
%TO.P,R7,1*%
%TO.N,+3V3*%
X39410000Y-147200000D03*
%TO.P,R7,2*%
%TO.N,RESET*%
X38390000Y-147200000D03*
%TD*%
D28*
%TO.P,C7,1*%
%TO.N,+3V3*%
X83500000Y-152805000D03*
%TO.P,C7,2*%
%TO.N,GND*%
X83500000Y-154705000D03*
%TD*%
D39*
%TO.P,C12,1*%
%TO.N,Net-(C12-Pad1)*%
X52800000Y-120900000D03*
%TO.P,C12,2*%
%TO.N,GND*%
X52300000Y-120900000D03*
%TD*%
D40*
%TO.P,U3,1,IN*%
%TO.N,+12V*%
X40582500Y-137110000D03*
%TO.P,U3,2,GND*%
%TO.N,GND*%
X40582500Y-138060000D03*
%TO.P,U3,3,EN*%
%TO.N,+12V*%
X40582500Y-139010000D03*
%TO.P,U3,4,NC*%
%TO.N,unconnected-(U3-Pad4)*%
X42857500Y-139010000D03*
%TO.P,U3,5,OUT*%
%TO.N,+2V8*%
X42857500Y-137110000D03*
%TD*%
D41*
%TO.P,U4,1,GND*%
%TO.N,GND*%
X78600000Y-154255000D03*
%TO.P,U4,2,VDD*%
%TO.N,+3V3*%
X78600000Y-152985000D03*
%TO.P,U4,3,EN*%
%TO.N,RESET*%
X78600000Y-151715000D03*
%TO.P,U4,4,SENSOR_VP*%
%TO.N,A4_IO36*%
X78600000Y-150445000D03*
%TO.P,U4,5,SENSOR_VN*%
%TO.N,A3_I39*%
X78600000Y-149175000D03*
%TO.P,U4,6,IO34*%
%TO.N,A2_I34*%
X78600000Y-147905000D03*
%TO.P,U4,7,IO35*%
%TO.N,unconnected-(U4-Pad7)*%
X78600000Y-146635000D03*
%TO.P,U4,8,IO32*%
%TO.N,IO32_A7*%
X78600000Y-145365000D03*
%TO.P,U4,9,IO33*%
%TO.N,IO33_A9*%
X78600000Y-144095000D03*
%TO.P,U4,10,IO25*%
%TO.N,A1_DAC1*%
X78600000Y-142825000D03*
%TO.P,U4,11,IO26*%
%TO.N,A0_DAC2*%
X78600000Y-141555000D03*
%TO.P,U4,12,IO27*%
%TO.N,IO27_A10*%
X78600000Y-140285000D03*
%TO.P,U4,13,IO14*%
%TO.N,IO14_A6*%
X78600000Y-139015000D03*
%TO.P,U4,14,IO12*%
%TO.N,IO12_A11*%
X78600000Y-137745000D03*
D42*
%TO.P,U4,15,GND*%
%TO.N,GND*%
X75815000Y-136745000D03*
%TO.P,U4,16,IO13*%
%TO.N,IO13_A12*%
X74545000Y-136745000D03*
%TO.P,U4,17,SHD/SD2*%
%TO.N,unconnected-(U4-Pad17)*%
X73275000Y-136745000D03*
%TO.P,U4,18,SWP/SD3*%
%TO.N,unconnected-(U4-Pad18)*%
X72005000Y-136745000D03*
%TO.P,U4,19,SCS/CMD*%
%TO.N,unconnected-(U4-Pad19)*%
X70735000Y-136745000D03*
%TO.P,U4,20,SCK/CLK*%
%TO.N,unconnected-(U4-Pad20)*%
X69465000Y-136745000D03*
%TO.P,U4,21,SDO/SD0*%
%TO.N,unconnected-(U4-Pad21)*%
X68195000Y-136745000D03*
%TO.P,U4,22,SDI/SD1*%
%TO.N,unconnected-(U4-Pad22)*%
X66925000Y-136745000D03*
%TO.P,U4,23,IO15*%
%TO.N,IO15_A8*%
X65655000Y-136745000D03*
%TO.P,U4,24,IO2*%
%TO.N,unconnected-(U4-Pad24)*%
X64385000Y-136745000D03*
D41*
%TO.P,U4,25,IO0*%
%TO.N,GPIO0*%
X61600000Y-137745000D03*
%TO.P,U4,26,IO4*%
%TO.N,A5_IO4*%
X61600000Y-139015000D03*
%TO.P,U4,27,IO16*%
%TO.N,IO16*%
X61600000Y-140285000D03*
%TO.P,U4,28,IO17*%
%TO.N,IO17*%
X61600000Y-141555000D03*
%TO.P,U4,29,IO5*%
%TO.N,SCK*%
X61600000Y-142825000D03*
%TO.P,U4,30,IO18*%
%TO.N,MOSI*%
X61600000Y-144095000D03*
%TO.P,U4,31,IO19*%
%TO.N,MISO*%
X61600000Y-145365000D03*
%TO.P,U4,32,NC*%
%TO.N,unconnected-(U4-Pad32)*%
X61600000Y-146635000D03*
%TO.P,U4,33,IO21*%
%TO.N,IO21*%
X61600000Y-147905000D03*
%TO.P,U4,34,RXD0/IO3*%
%TO.N,RXD0*%
X61600000Y-149175000D03*
%TO.P,U4,35,TXD0/IO1*%
%TO.N,TXD0*%
X61600000Y-150445000D03*
%TO.P,U4,36,IO22*%
%TO.N,SCI*%
X61600000Y-151715000D03*
%TO.P,U4,37,IO23*%
%TO.N,SDA*%
X61600000Y-152985000D03*
%TO.P,U4,38,GND*%
%TO.N,GND*%
X61600000Y-154255000D03*
D43*
%TO.P,U4,39,GND*%
X71100000Y-146755000D03*
%TD*%
D44*
%TO.P,H1,1,1*%
%TO.N,GND*%
X34800000Y-104500000D03*
D45*
X37080419Y-102219581D03*
X34800000Y-107725000D03*
X37080419Y-106780419D03*
X31575000Y-104500000D03*
X32519581Y-102219581D03*
X38025000Y-104500000D03*
X34800000Y-101275000D03*
X32519581Y-106780419D03*
%TD*%
D46*
%TO.P,C11,1*%
%TO.N,+3V3*%
X54750000Y-145800000D03*
%TO.P,C11,2*%
%TO.N,GND*%
X52850000Y-145800000D03*
%TD*%
D14*
%TO.P,J6,1,Pin_1*%
%TO.N,IO21*%
X94100000Y-122620000D03*
D15*
%TO.P,J6,2,Pin_2*%
%TO.N,MISO*%
X94100000Y-125160000D03*
%TO.P,J6,3,Pin_3*%
%TO.N,MOSI*%
X94100000Y-127700000D03*
%TO.P,J6,4,Pin_4*%
%TO.N,SCK*%
X94100000Y-130240000D03*
%TO.P,J6,5,Pin_5*%
%TO.N,IO17*%
X94100000Y-132780000D03*
%TO.P,J6,6,Pin_6*%
%TO.N,IO16*%
X94100000Y-135320000D03*
%TO.P,J6,7,Pin_7*%
%TO.N,A5_IO4*%
X94100000Y-137860000D03*
%TO.P,J6,8,Pin_8*%
%TO.N,A2_I34*%
X94100000Y-140400000D03*
%TO.P,J6,9,Pin_9*%
%TO.N,A3_I39*%
X94100000Y-142940000D03*
%TO.P,J6,10,Pin_10*%
%TO.N,A4_IO36*%
X94100000Y-145480000D03*
%TO.P,J6,11,Pin_11*%
%TO.N,A0_DAC2*%
X94100000Y-148020000D03*
%TO.P,J6,12,Pin_12*%
%TO.N,A1_DAC1*%
X94100000Y-150560000D03*
%TO.P,J6,13,Pin_13*%
%TO.N,GND*%
X94100000Y-153100000D03*
%TO.P,J6,14,Pin_14*%
%TO.N,unconnected-(J6-Pad14)*%
X94100000Y-155640000D03*
%TO.P,J6,15,Pin_15*%
%TO.N,+3V3*%
X94100000Y-158180000D03*
%TO.P,J6,16,Pin_16*%
%TO.N,RESET*%
X94100000Y-160720000D03*
%TD*%
D45*
%TO.P,H2,1,1*%
%TO.N,GND*%
X32519581Y-171680419D03*
X34800000Y-166175000D03*
X37080419Y-167119581D03*
X38025000Y-169400000D03*
X37080419Y-171680419D03*
X34800000Y-172625000D03*
X32519581Y-167119581D03*
D44*
X34800000Y-169400000D03*
D45*
X31575000Y-169400000D03*
%TD*%
D47*
%TO.P,U1,1,GND*%
%TO.N,GND*%
X75750000Y-129900000D03*
%TO.P,U1,2,VO*%
%TO.N,Net-(C5-Pad1)*%
X75750000Y-127600000D03*
%TO.P,U1,3,VI*%
%TO.N,Net-(C2-Pad1)*%
X75750000Y-125300000D03*
D48*
%TO.P,U1,4*%
%TO.N,N/C*%
X69450000Y-127600000D03*
%TD*%
D49*
%TO.P,R1,1*%
%TO.N,+12V*%
X38820000Y-153450000D03*
%TO.P,R1,2*%
%TO.N,Net-(D1-Pad2)*%
X38180000Y-153450000D03*
%TD*%
D45*
%TO.P,H3,1,1*%
%TO.N,GND*%
X94280419Y-171780419D03*
D44*
X92000000Y-169500000D03*
D45*
X92000000Y-172725000D03*
X95225000Y-169500000D03*
X89719581Y-171780419D03*
X94280419Y-167219581D03*
X92000000Y-166275000D03*
X88775000Y-169500000D03*
X89719581Y-167219581D03*
%TD*%
D28*
%TO.P,C10,1*%
%TO.N,+3V3*%
X81400000Y-152805000D03*
%TO.P,C10,2*%
%TO.N,GND*%
X81400000Y-154705000D03*
%TD*%
D50*
%TO.P,C4,1*%
%TO.N,+2V8*%
X45720000Y-137160000D03*
%TO.P,C4,2*%
%TO.N,GND*%
X45720000Y-140110000D03*
%TD*%
D51*
%TO.P,R5,1*%
%TO.N,GND*%
X36137500Y-131700000D03*
%TO.P,R5,2*%
%TO.N,Net-(R5-Pad2)*%
X39062500Y-131700000D03*
%TD*%
D52*
%TO.P,C2,1*%
%TO.N,Net-(C2-Pad1)*%
X79250000Y-125300000D03*
%TO.P,C2,2*%
%TO.N,GND*%
X78290000Y-125300000D03*
%TD*%
D45*
%TO.P,H4,1,1*%
%TO.N,GND*%
X94280419Y-102219581D03*
X95225000Y-104500000D03*
X89719581Y-106780419D03*
X92000000Y-101275000D03*
X88775000Y-104500000D03*
X94280419Y-106780419D03*
X89719581Y-102219581D03*
D44*
X92000000Y-104500000D03*
D45*
X92000000Y-107725000D03*
%TD*%
D53*
%TO.P,C1,1*%
%TO.N,+12V*%
X38500000Y-138100000D03*
%TO.P,C1,2*%
%TO.N,GND*%
X35550000Y-138100000D03*
%TD*%
D54*
%TO.P,D1,1,K*%
%TO.N,GND*%
X35900000Y-158725000D03*
D55*
%TO.P,D1,2,A*%
%TO.N,Net-(D1-Pad2)*%
X35900000Y-156185000D03*
%TD*%
D56*
%TO.P,PHOTO1,1,P$1*%
%TO.N,Net-(PHOTO1-Pad1)*%
X48898980Y-115000000D03*
%TO.P,PHOTO1,2,P$2*%
%TO.N,Net-(NT1-Pad1)*%
X44901020Y-115000000D03*
%TD*%
D28*
%TO.P,C5,1*%
%TO.N,Net-(C5-Pad1)*%
X78350000Y-127550000D03*
%TO.P,C5,2*%
%TO.N,GND*%
X78350000Y-129450000D03*
%TD*%
D57*
%TO.P,Q2,1,B*%
%TO.N,Net-(Q2-Pad1)*%
X54100000Y-140367500D03*
%TO.P,Q2,2,E*%
%TO.N,RTS*%
X52200000Y-140367500D03*
%TO.P,Q2,3,C*%
%TO.N,RESET*%
X53150000Y-142242500D03*
%TD*%
D58*
%TO.N,GND*%
X45800000Y-141650000D03*
D59*
X78400000Y-130900000D03*
D58*
X51400000Y-145800000D03*
X52800000Y-117150000D03*
X42000000Y-126300000D03*
X41950000Y-149700000D03*
X51150000Y-121950000D03*
X42050000Y-125050000D03*
X39450000Y-129250000D03*
X42850000Y-116200000D03*
X36100000Y-133550000D03*
D59*
X59350000Y-155200000D03*
D58*
X78300000Y-124150000D03*
X51500000Y-155000000D03*
X86000000Y-154650000D03*
X36300000Y-143800000D03*
X49050000Y-152450000D03*
X52650000Y-152500000D03*
X41800000Y-140600000D03*
X35500000Y-139950000D03*
D59*
X58300000Y-146850000D03*
D58*
X40650000Y-129250000D03*
D59*
%TO.N,+12V*%
X57900000Y-115000000D03*
D58*
X85750000Y-126150000D03*
D59*
X38100000Y-152300000D03*
X34700000Y-129450000D03*
X38850000Y-136200000D03*
%TO.N,+3V3*%
X39410000Y-146190000D03*
X88850000Y-156900000D03*
X48200000Y-155000000D03*
X47750000Y-150100000D03*
%TO.N,+5V*%
X36500000Y-111800000D03*
%TO.N,Net-(C5-Pad1)*%
X80400000Y-128700000D03*
X56850000Y-138900000D03*
%TO.N,RESET*%
X42900000Y-148150000D03*
X53200000Y-143750000D03*
X84950000Y-167600000D03*
X85100000Y-151900000D03*
%TO.N,Net-(J5-Pad2)*%
X49400000Y-155050000D03*
X56200000Y-145850000D03*
%TO.N,Net-(J5-Pad3)*%
X50350000Y-155050000D03*
X57300000Y-145950000D03*
%TO.N,IO21*%
X59800000Y-147950000D03*
%TO.N,IO17*%
X59800000Y-141550000D03*
%TO.N,IO16*%
X59800000Y-140300000D03*
%TO.N,MISO*%
X59800000Y-145350000D03*
%TO.N,MOSI*%
X59800000Y-144100000D03*
%TO.N,SCK*%
X59800000Y-142850000D03*
%TO.N,A5_IO4*%
X59800000Y-138950000D03*
%TO.N,A4_IO36*%
X80300000Y-150500000D03*
%TO.N,A3_I39*%
X80300000Y-149250000D03*
%TO.N,A2_I34*%
X80300000Y-147900000D03*
%TO.N,A1_DAC1*%
X80350000Y-142950000D03*
X88200000Y-143000000D03*
%TO.N,A0_DAC2*%
X88150000Y-141650000D03*
X80350000Y-141650000D03*
%TO.N,IO13_A12*%
X74550000Y-134900000D03*
%TO.N,IO12_A11*%
X80350000Y-137750000D03*
%TO.N,IO27_A10*%
X80350000Y-140300000D03*
%TO.N,IO33_A9*%
X80350000Y-144150000D03*
%TO.N,IO15_A8*%
X65650000Y-134900000D03*
%TO.N,IO32_A7*%
X80350000Y-145450000D03*
%TO.N,IO14_A6*%
X80350000Y-139050000D03*
%TO.N,SCI*%
X59335000Y-153035000D03*
%TO.N,SDA*%
X59335000Y-154285000D03*
%TO.N,DTR*%
X58459266Y-145140734D03*
X54200000Y-138850000D03*
%TO.N,RTS*%
X56900000Y-153200000D03*
X59350000Y-151750000D03*
%TD*%
D60*
%TO.N,GND*%
X40650000Y-129250000D02*
X40650000Y-127052100D01*
D61*
X80950000Y-154255000D02*
X81400000Y-154705000D01*
D60*
X52000000Y-150950000D02*
X52000000Y-151850000D01*
D62*
X42825000Y-116175000D02*
X41850000Y-116175000D01*
D60*
X41274100Y-126300000D02*
X40586000Y-126988100D01*
X35500000Y-139950000D02*
X35500000Y-138150000D01*
D61*
X75750000Y-129900000D02*
X76055000Y-129595000D01*
D62*
X41800000Y-138600000D02*
X41800000Y-140600000D01*
X42850000Y-116200000D02*
X42825000Y-116175000D01*
D61*
X78205000Y-129595000D02*
X78350000Y-129450000D01*
X81400000Y-154705000D02*
X83500000Y-154705000D01*
X36130000Y-146650000D02*
X36300000Y-146480000D01*
D60*
X40650000Y-127052100D02*
X40586000Y-126988100D01*
X45800000Y-141650000D02*
X45800000Y-140190000D01*
D63*
X57050000Y-146850000D02*
X58300000Y-146850000D01*
D61*
X83500000Y-154705000D02*
X85945000Y-154705000D01*
X78290000Y-124160000D02*
X78300000Y-124150000D01*
D63*
X56750000Y-148062500D02*
X56750000Y-147150000D01*
D62*
X60655000Y-155200000D02*
X61600000Y-154255000D01*
D61*
X76055000Y-129595000D02*
X78205000Y-129595000D01*
X75815000Y-138245000D02*
X71100000Y-142960000D01*
D63*
X50022680Y-120500000D02*
X50850000Y-120500000D01*
X51345000Y-155155000D02*
X51500000Y-155000000D01*
D61*
X75815000Y-136745000D02*
X75815000Y-138245000D01*
D62*
X52800000Y-116020000D02*
X52800000Y-117150000D01*
X51250000Y-121950000D02*
X52300000Y-120900000D01*
X51150000Y-121950000D02*
X51250000Y-121950000D01*
D61*
X71100000Y-142960000D02*
X71100000Y-146755000D01*
D60*
X45800000Y-140190000D02*
X45720000Y-140110000D01*
X37575000Y-129458900D02*
X39241100Y-129458900D01*
D63*
X51345000Y-157095000D02*
X51345000Y-155155000D01*
D61*
X78600000Y-154255000D02*
X80950000Y-154255000D01*
X85945000Y-154705000D02*
X86000000Y-154650000D01*
D60*
X52000000Y-150950000D02*
X49850000Y-150950000D01*
D61*
X36300000Y-146480000D02*
X36300000Y-143800000D01*
D62*
X59350000Y-155200000D02*
X60655000Y-155200000D01*
D60*
X52850000Y-145800000D02*
X51400000Y-145800000D01*
X49050000Y-152450000D02*
X49850000Y-151650000D01*
D62*
X41260000Y-138060000D02*
X41800000Y-138600000D01*
D60*
X40586000Y-126988100D02*
X40586000Y-126514000D01*
X36100000Y-131737500D02*
X36137500Y-131700000D01*
X39241100Y-129458900D02*
X39450000Y-129250000D01*
X40350000Y-149700000D02*
X41950000Y-149700000D01*
D61*
X71100000Y-146755000D02*
X71100000Y-149755000D01*
D60*
X36100000Y-133550000D02*
X36100000Y-131737500D01*
D61*
X78350000Y-130850000D02*
X78400000Y-130900000D01*
D63*
X56750000Y-149250000D02*
X56000000Y-150000000D01*
X56750000Y-147150000D02*
X57050000Y-146850000D01*
D60*
X40586000Y-126514000D02*
X42050000Y-125050000D01*
X52000000Y-151850000D02*
X52650000Y-152500000D01*
D63*
X50850000Y-120500000D02*
X51250000Y-120900000D01*
D60*
X49850000Y-151650000D02*
X49850000Y-150950000D01*
D63*
X51250000Y-120900000D02*
X52300000Y-120900000D01*
X56750000Y-148062500D02*
X56750000Y-149250000D01*
D61*
X71100000Y-149755000D02*
X75600000Y-154255000D01*
D60*
X42000000Y-126300000D02*
X41274100Y-126300000D01*
X35500000Y-138150000D02*
X35550000Y-138100000D01*
D62*
X40582500Y-138060000D02*
X41260000Y-138060000D01*
D61*
X78350000Y-129450000D02*
X78350000Y-130850000D01*
X75600000Y-154255000D02*
X78600000Y-154255000D01*
X78290000Y-125300000D02*
X78290000Y-124160000D01*
D60*
%TO.N,+12V*%
X84945000Y-125345000D02*
X85750000Y-126150000D01*
D63*
X38820000Y-153020000D02*
X38100000Y-152300000D01*
D61*
X40582500Y-137110000D02*
X39490000Y-137110000D01*
X40582500Y-139010000D02*
X39410000Y-139010000D01*
X39490000Y-137110000D02*
X38500000Y-138100000D01*
X34708900Y-129458900D02*
X34700000Y-129450000D01*
D63*
X38820000Y-153450000D02*
X38820000Y-153020000D01*
D60*
X83950000Y-125345000D02*
X84945000Y-125345000D01*
D61*
X36025000Y-129458900D02*
X34708900Y-129458900D01*
X39410000Y-139010000D02*
X38500000Y-138100000D01*
X59500000Y-117700000D02*
X57900000Y-116100000D01*
X57900000Y-116100000D02*
X57900000Y-115000000D01*
X36014000Y-126988100D02*
X36014000Y-129447900D01*
X40582500Y-137110000D02*
X39760000Y-137110000D01*
X36014000Y-129447900D02*
X36025000Y-129458900D01*
X39760000Y-137110000D02*
X38850000Y-136200000D01*
%TO.N,+2V8*%
X40847500Y-135100000D02*
X32600000Y-135100000D01*
X42857500Y-137110000D02*
X45670000Y-137110000D01*
X42857500Y-137110000D02*
X40847500Y-135100000D01*
X45670000Y-137110000D02*
X45720000Y-137160000D01*
D63*
%TO.N,+3V3*%
X52000000Y-149050000D02*
X49850000Y-149050000D01*
X54750000Y-148062500D02*
X55250000Y-148062500D01*
X48800000Y-149050000D02*
X49850000Y-149050000D01*
X54750000Y-148062500D02*
X54750000Y-145800000D01*
D61*
X81400000Y-152805000D02*
X83500000Y-152805000D01*
D63*
X48450000Y-155000000D02*
X48745000Y-155295000D01*
X48745000Y-155295000D02*
X48745000Y-157095000D01*
D61*
X81220000Y-152985000D02*
X81400000Y-152805000D01*
D63*
X88850000Y-153660000D02*
X87995000Y-152805000D01*
D61*
X39410000Y-146190000D02*
X39410000Y-147200000D01*
D63*
X48200000Y-155000000D02*
X48450000Y-155000000D01*
X54600000Y-148200000D02*
X54737500Y-148062500D01*
X54062500Y-148750000D02*
X54600000Y-148212500D01*
X54062500Y-149250000D02*
X52200000Y-149250000D01*
X54600000Y-148212500D02*
X54600000Y-148200000D01*
X52200000Y-149250000D02*
X52000000Y-149050000D01*
D60*
X56450000Y-142262500D02*
X56450000Y-144100000D01*
D63*
X47750000Y-150100000D02*
X48800000Y-149050000D01*
D61*
X83500000Y-152805000D02*
X87995000Y-152805000D01*
X88725000Y-152805000D02*
X94100000Y-158180000D01*
X78600000Y-152985000D02*
X81220000Y-152985000D01*
D63*
X54062500Y-149250000D02*
X54062500Y-148750000D01*
D61*
X87995000Y-152805000D02*
X88725000Y-152805000D01*
D63*
X54737500Y-148062500D02*
X54750000Y-148062500D01*
X88850000Y-156900000D02*
X88850000Y-153660000D01*
D60*
X56450000Y-144100000D02*
X54750000Y-145800000D01*
D63*
%TO.N,+5V*%
X40459700Y-116675000D02*
X38300000Y-118834700D01*
D60*
X36500000Y-113758900D02*
X36500000Y-111800000D01*
D63*
X41850000Y-116675000D02*
X40459700Y-116675000D01*
X46900000Y-123100000D02*
X46900000Y-120350000D01*
X47712700Y-127260000D02*
X47712700Y-123912700D01*
X41850000Y-116675000D02*
X45027300Y-119852300D01*
X46900000Y-120350000D02*
X47397700Y-119852300D01*
D60*
X36500000Y-117034700D02*
X38300000Y-118834700D01*
D63*
X45027300Y-119852300D02*
X47777320Y-119852300D01*
X47712700Y-123912700D02*
X46900000Y-123100000D01*
D60*
X36500000Y-113758900D02*
X36500000Y-117034700D01*
D63*
X47397700Y-119852300D02*
X47777320Y-119852300D01*
D62*
%TO.N,Net-(C2-Pad1)*%
X79250000Y-125300000D02*
X81105000Y-125300000D01*
D63*
X79550000Y-123300000D02*
X81150000Y-124900000D01*
X81150000Y-124900000D02*
X81150000Y-125345000D01*
D62*
X81105000Y-125300000D02*
X81150000Y-125345000D01*
D63*
X75750000Y-125300000D02*
X77750000Y-123300000D01*
X77750000Y-123300000D02*
X79550000Y-123300000D01*
%TO.N,Net-(C5-Pad1)*%
X80400000Y-128700000D02*
X79500000Y-128700000D01*
X79500000Y-128700000D02*
X78350000Y-127550000D01*
X78300000Y-127600000D02*
X78350000Y-127550000D01*
X75750000Y-127600000D02*
X78300000Y-127600000D01*
X56450000Y-140137500D02*
X56450000Y-139300000D01*
X56450000Y-139300000D02*
X56850000Y-138900000D01*
%TO.N,Net-(C12-Pad1)*%
X52800000Y-120900000D02*
X52800000Y-119890000D01*
X52800000Y-119890000D02*
X52760000Y-119850000D01*
D61*
%TO.N,RESET*%
X39850000Y-161450000D02*
X46000000Y-167600000D01*
X38400000Y-149650000D02*
X38450000Y-149700000D01*
X39950000Y-161350000D02*
X39850000Y-161450000D01*
D62*
X53200000Y-143750000D02*
X53200000Y-142292500D01*
X53200000Y-142292500D02*
X53150000Y-142242500D01*
X78600000Y-151715000D02*
X84915000Y-151715000D01*
D61*
X38450000Y-151150000D02*
X39950000Y-152650000D01*
D62*
X39340000Y-148150000D02*
X42900000Y-148150000D01*
X38390000Y-147200000D02*
X39340000Y-148150000D01*
D61*
X38450000Y-149700000D02*
X38450000Y-151150000D01*
X39950000Y-152650000D02*
X39950000Y-161350000D01*
X38450000Y-149700000D02*
X38450000Y-147387849D01*
X46000000Y-167600000D02*
X84950000Y-167600000D01*
X36130000Y-149650000D02*
X38400000Y-149650000D01*
D62*
X84915000Y-151715000D02*
X85100000Y-151900000D01*
D63*
%TO.N,Net-(D1-Pad2)*%
X35900000Y-156185000D02*
X38180000Y-153905000D01*
X38180000Y-153905000D02*
X38180000Y-153450000D01*
%TO.N,Net-(J5-Pad2)*%
X55750000Y-146300000D02*
X55750000Y-148062500D01*
X56200000Y-145850000D02*
X55750000Y-146300000D01*
X49395000Y-157095000D02*
X49395000Y-155055000D01*
X49395000Y-155055000D02*
X49400000Y-155050000D01*
%TO.N,Net-(J5-Pad3)*%
X56250000Y-148062500D02*
X56250000Y-146850000D01*
D62*
X50045000Y-157095000D02*
X50045000Y-155355000D01*
D63*
X57150000Y-145950000D02*
X57300000Y-145950000D01*
X56250000Y-146850000D02*
X57150000Y-145950000D01*
D62*
X50045000Y-155355000D02*
X50350000Y-155050000D01*
D63*
%TO.N,unconnected-(J5-Pad6)*%
X53920000Y-160945000D02*
X53920000Y-157295000D01*
X46869521Y-158994521D02*
X52876174Y-158994521D01*
X53770000Y-158100695D02*
X53770000Y-157145000D01*
X46320000Y-158445000D02*
X46869521Y-158994521D01*
X52876174Y-158994521D02*
X53770000Y-158100695D01*
X46170000Y-160945000D02*
X46170000Y-157295000D01*
X46170000Y-157295000D02*
X46320000Y-157145000D01*
X46320000Y-157145000D02*
X46320000Y-158445000D01*
X53920000Y-157295000D02*
X53770000Y-157145000D01*
%TO.N,IO21*%
X61600000Y-147905000D02*
X59845000Y-147905000D01*
X59845000Y-147905000D02*
X59800000Y-147950000D01*
%TO.N,IO17*%
X59805000Y-141555000D02*
X59800000Y-141550000D01*
X61600000Y-141555000D02*
X59805000Y-141555000D01*
%TO.N,IO16*%
X59815000Y-140285000D02*
X59800000Y-140300000D01*
X61600000Y-140285000D02*
X59815000Y-140285000D01*
%TO.N,MISO*%
X59815000Y-145365000D02*
X59800000Y-145350000D01*
X61600000Y-145365000D02*
X59815000Y-145365000D01*
%TO.N,MOSI*%
X59805000Y-144095000D02*
X59800000Y-144100000D01*
X61600000Y-144095000D02*
X59805000Y-144095000D01*
%TO.N,SCK*%
X59825000Y-142825000D02*
X59800000Y-142850000D01*
X61600000Y-142825000D02*
X59825000Y-142825000D01*
%TO.N,A5_IO4*%
X61600000Y-139015000D02*
X59865000Y-139015000D01*
X59865000Y-139015000D02*
X59800000Y-138950000D01*
%TO.N,A4_IO36*%
X78600000Y-150445000D02*
X80245000Y-150445000D01*
X80245000Y-150445000D02*
X80300000Y-150500000D01*
%TO.N,A3_I39*%
X80225000Y-149175000D02*
X80300000Y-149250000D01*
X78600000Y-149175000D02*
X80225000Y-149175000D01*
%TO.N,A2_I34*%
X78600000Y-147905000D02*
X80295000Y-147905000D01*
X80295000Y-147905000D02*
X80300000Y-147900000D01*
%TO.N,A1_DAC1*%
X91800000Y-146550000D02*
X91800000Y-149500000D01*
X92860000Y-150560000D02*
X94100000Y-150560000D01*
X78600000Y-142825000D02*
X80225000Y-142825000D01*
X88200000Y-142950000D02*
X91800000Y-146550000D01*
X91800000Y-149500000D02*
X92860000Y-150560000D01*
X80225000Y-142825000D02*
X80350000Y-142950000D01*
%TO.N,A0_DAC2*%
X80255000Y-141555000D02*
X80350000Y-141650000D01*
X94100000Y-147550000D02*
X94100000Y-148020000D01*
X88200000Y-141650000D02*
X94100000Y-147550000D01*
X78600000Y-141555000D02*
X80255000Y-141555000D01*
%TO.N,IO13_A12*%
X74545000Y-136745000D02*
X74545000Y-134905000D01*
X74545000Y-134905000D02*
X74550000Y-134900000D01*
%TO.N,IO12_A11*%
X80345000Y-137745000D02*
X80350000Y-137750000D01*
X78600000Y-137745000D02*
X80345000Y-137745000D01*
%TO.N,IO27_A10*%
X78600000Y-140285000D02*
X80335000Y-140285000D01*
X80335000Y-140285000D02*
X80350000Y-140300000D01*
%TO.N,IO33_A9*%
X78600000Y-144095000D02*
X80295000Y-144095000D01*
X80295000Y-144095000D02*
X80350000Y-144150000D01*
%TO.N,IO15_A8*%
X65655000Y-134905000D02*
X65650000Y-134900000D01*
X65655000Y-136745000D02*
X65655000Y-134905000D01*
%TO.N,IO32_A7*%
X80265000Y-145365000D02*
X80350000Y-145450000D01*
X78600000Y-145365000D02*
X80265000Y-145365000D01*
%TO.N,IO14_A6*%
X78600000Y-139015000D02*
X80315000Y-139015000D01*
X80315000Y-139015000D02*
X80350000Y-139050000D01*
%TO.N,SCI*%
X60655000Y-151715000D02*
X59617503Y-152752497D01*
X61600000Y-151715000D02*
X60655000Y-151715000D01*
%TO.N,SDA*%
X60635000Y-152985000D02*
X59335000Y-154285000D01*
X61600000Y-152985000D02*
X60635000Y-152985000D01*
D61*
%TO.N,Net-(NT1-Pad1)*%
X40500000Y-113758900D02*
X42008900Y-113758900D01*
X42008900Y-113758900D02*
X43250000Y-115000000D01*
X43250000Y-115000000D02*
X44901020Y-115000000D01*
%TO.N,Net-(PHOTO1-Pad1)*%
X48898980Y-115000000D02*
X52800000Y-115000000D01*
D63*
%TO.N,Net-(Q1-Pad1)*%
X54650000Y-136337500D02*
X53032500Y-136337500D01*
X53032500Y-136337500D02*
X50910000Y-138460000D01*
%TO.N,DTR*%
X58949511Y-145630979D02*
X58949511Y-148949511D01*
X53010000Y-138460000D02*
X53810000Y-138460000D01*
X56550000Y-137700000D02*
X56550000Y-136337500D01*
X53810000Y-138460000D02*
X54200000Y-138850000D01*
X57937500Y-149250000D02*
X58649022Y-149250000D01*
X53010000Y-138460000D02*
X53270000Y-138200000D01*
X56050000Y-138200000D02*
X56550000Y-137700000D01*
X58459266Y-145140734D02*
X58949511Y-145630979D01*
X53270000Y-138200000D02*
X56050000Y-138200000D01*
X58649022Y-149250000D02*
X58949511Y-148949511D01*
D62*
%TO.N,GPIO0*%
X57212500Y-134462500D02*
X60495000Y-137745000D01*
X60495000Y-137745000D02*
X61600000Y-137745000D01*
X55600000Y-134462500D02*
X57212500Y-134462500D01*
D63*
%TO.N,Net-(Q2-Pad1)*%
X51990000Y-138460000D02*
X53897500Y-140367500D01*
X53897500Y-140367500D02*
X54100000Y-140367500D01*
%TO.N,RTS*%
X46900000Y-145667500D02*
X46900000Y-152650000D01*
X52200000Y-140367500D02*
X46900000Y-145667500D01*
X46900000Y-152650000D02*
X48100000Y-153850000D01*
X51797500Y-140367500D02*
X52200000Y-140367500D01*
X48100000Y-153850000D02*
X56250000Y-153850000D01*
X49890000Y-138460000D02*
X51797500Y-140367500D01*
X58850000Y-151250000D02*
X59350000Y-151750000D01*
X57937500Y-151250000D02*
X58850000Y-151250000D01*
X56250000Y-153850000D02*
X56900000Y-153200000D01*
%TO.N,Net-(R5-Pad2)*%
X39062500Y-131700000D02*
X40300000Y-131700000D01*
X40300000Y-131700000D02*
X42200000Y-129800000D01*
X42200000Y-129800000D02*
X45172700Y-129800000D01*
%TO.N,Net-(R6-Pad2)*%
X51737700Y-119852300D02*
X51740000Y-119850000D01*
X50022680Y-119852300D02*
X51737700Y-119852300D01*
%TO.N,RXD0*%
X59500000Y-150250000D02*
X60575000Y-149175000D01*
X60575000Y-149175000D02*
X61600000Y-149175000D01*
X57937500Y-150250000D02*
X59500000Y-150250000D01*
%TO.N,TXD0*%
X60200000Y-150750000D02*
X60505000Y-150445000D01*
X57937500Y-150750000D02*
X60200000Y-150750000D01*
X60505000Y-150445000D02*
X61600000Y-150445000D01*
%TD*%
M02*
