%TF.GenerationSoftware,KiCad,Pcbnew,(6.0.1)*%
%TF.CreationDate,2022-03-22T21:47:25-04:00*%
%TF.ProjectId,Looking Glass,4c6f6f6b-696e-4672-9047-6c6173732e6b,rev?*%
%TF.SameCoordinates,Original*%
%TF.FileFunction,Soldermask,Top*%
%TF.FilePolarity,Negative*%
%FSLAX46Y46*%
G04 Gerber Fmt 4.6, Leading zero omitted, Abs format (unit mm)*
G04 Created by KiCad (PCBNEW (6.0.1)) date 2022-03-22 21:47:25*
%MOMM*%
%LPD*%
G01*
G04 APERTURE LIST*
G04 Aperture macros list*
%AMRoundRect*
0 Rectangle with rounded corners*
0 $1 Rounding radius*
0 $2 $3 $4 $5 $6 $7 $8 $9 X,Y pos of 4 corners*
0 Add a 4 corners polygon primitive as box body*
4,1,4,$2,$3,$4,$5,$6,$7,$8,$9,$2,$3,0*
0 Add four circle primitives for the rounded corners*
1,1,$1+$1,$2,$3*
1,1,$1+$1,$4,$5*
1,1,$1+$1,$6,$7*
1,1,$1+$1,$8,$9*
0 Add four rect primitives between the rounded corners*
20,1,$1+$1,$2,$3,$4,$5,0*
20,1,$1+$1,$4,$5,$6,$7,0*
20,1,$1+$1,$6,$7,$8,$9,0*
20,1,$1+$1,$8,$9,$2,$3,0*%
G04 Aperture macros list end*
%ADD10C,0.127000*%
%ADD11RoundRect,0.250000X0.375000X0.625000X-0.375000X0.625000X-0.375000X-0.625000X0.375000X-0.625000X0*%
%ADD12R,3.500000X3.500000*%
%ADD13RoundRect,0.750000X0.750000X1.000000X-0.750000X1.000000X-0.750000X-1.000000X0.750000X-1.000000X0*%
%ADD14RoundRect,0.875000X0.875000X0.875000X-0.875000X0.875000X-0.875000X-0.875000X0.875000X-0.875000X0*%
%ADD15R,1.700000X1.700000*%
%ADD16O,1.700000X1.700000*%
%ADD17R,0.939800X2.489200*%
%ADD18R,5.562600X6.299200*%
%ADD19RoundRect,0.062500X-0.062500X0.350000X-0.062500X-0.350000X0.062500X-0.350000X0.062500X0.350000X0*%
%ADD20RoundRect,0.062500X-0.350000X0.062500X-0.350000X-0.062500X0.350000X-0.062500X0.350000X0.062500X0*%
%ADD21R,2.600000X2.600000*%
%ADD22RoundRect,0.135000X-0.135000X-0.185000X0.135000X-0.185000X0.135000X0.185000X-0.135000X0.185000X0*%
%ADD23RoundRect,0.218750X-0.381250X0.218750X-0.381250X-0.218750X0.381250X-0.218750X0.381250X0.218750X0*%
%ADD24R,0.850900X0.304800*%
%ADD25O,0.800000X0.800000*%
%ADD26R,0.450000X1.300000*%
%ADD27O,1.450000X2.000000*%
%ADD28O,1.150000X1.800000*%
%ADD29RoundRect,0.250000X-0.475000X0.250000X-0.475000X-0.250000X0.475000X-0.250000X0.475000X0.250000X0*%
%ADD30RoundRect,0.135000X0.135000X0.185000X-0.135000X0.185000X-0.135000X-0.185000X0.135000X-0.185000X0*%
%ADD31RoundRect,0.075000X0.075000X-0.125000X0.075000X0.125000X-0.075000X0.125000X-0.075000X-0.125000X0*%
%ADD32R,0.800000X1.000000*%
%ADD33C,0.900000*%
%ADD34R,1.500000X0.700000*%
%ADD35RoundRect,0.135000X-0.185000X0.135000X-0.185000X-0.135000X0.185000X-0.135000X0.185000X0.135000X0*%
%ADD36RoundRect,0.150000X0.150000X-0.587500X0.150000X0.587500X-0.150000X0.587500X-0.150000X-0.587500X0*%
%ADD37R,1.270000X1.270000*%
%ADD38C,1.270000*%
%ADD39RoundRect,0.250000X-0.250000X-0.475000X0.250000X-0.475000X0.250000X0.475000X-0.250000X0.475000X0*%
%ADD40RoundRect,0.225000X-0.225000X-0.250000X0.225000X-0.250000X0.225000X0.250000X-0.225000X0.250000X0*%
%ADD41RoundRect,0.075000X0.125000X0.075000X-0.125000X0.075000X-0.125000X-0.075000X0.125000X-0.075000X0*%
%ADD42RoundRect,0.150000X-0.512500X-0.150000X0.512500X-0.150000X0.512500X0.150000X-0.512500X0.150000X0*%
%ADD43R,2.000000X0.900000*%
%ADD44R,0.900000X2.000000*%
%ADD45R,5.000000X5.000000*%
%ADD46C,8.600000*%
%ADD47RoundRect,0.250000X0.250000X0.475000X-0.250000X0.475000X-0.250000X-0.475000X0.250000X-0.475000X0*%
%ADD48R,2.000000X1.500000*%
%ADD49R,2.000000X3.800000*%
%ADD50RoundRect,0.100000X0.130000X0.100000X-0.130000X0.100000X-0.130000X-0.100000X0.130000X-0.100000X0*%
%ADD51RoundRect,0.250000X-0.650000X0.325000X-0.650000X-0.325000X0.650000X-0.325000X0.650000X0.325000X0*%
%ADD52RoundRect,0.250000X-0.312500X-0.625000X0.312500X-0.625000X0.312500X0.625000X-0.312500X0.625000X0*%
%ADD53RoundRect,0.140000X0.140000X0.170000X-0.140000X0.170000X-0.140000X-0.170000X0.140000X-0.170000X0*%
%ADD54RoundRect,0.250000X0.325000X0.650000X-0.325000X0.650000X-0.325000X-0.650000X0.325000X-0.650000X0*%
%ADD55R,1.800000X1.800000*%
%ADD56C,1.800000*%
%ADD57C,1.879600*%
%ADD58RoundRect,0.150000X-0.150000X0.587500X-0.150000X-0.587500X0.150000X-0.587500X0.150000X0.587500X0*%
G04 APERTURE END LIST*
D10*
%TO.C,PHOTO1*%
X48906600Y-114555500D02*
X49003120Y-114565660D01*
X49003120Y-114565660D02*
X49094560Y-114596140D01*
X49094560Y-114596140D02*
X49178380Y-114644400D01*
X49178380Y-114644400D02*
X49249500Y-114712980D01*
X49249500Y-114712980D02*
X49302840Y-114794260D01*
X49302840Y-114794260D02*
X49335860Y-114885700D01*
X49335860Y-114885700D02*
X49351100Y-114982220D01*
X49351100Y-114982220D02*
X49340940Y-115081280D01*
X49340940Y-115081280D02*
X49310460Y-115177800D01*
X49310460Y-115177800D02*
X49257120Y-115264160D01*
X49257120Y-115264160D02*
X49186000Y-115340360D01*
X49186000Y-115340360D02*
X49102180Y-115396240D01*
X49102180Y-115396240D02*
X49005660Y-115431800D01*
X49005660Y-115431800D02*
X48906600Y-115444500D01*
X48906600Y-115444500D02*
X48805000Y-115431800D01*
X48805000Y-115431800D02*
X48711020Y-115398780D01*
X48711020Y-115398780D02*
X48627200Y-115342900D01*
X48627200Y-115342900D02*
X48556080Y-115271780D01*
X48556080Y-115271780D02*
X48505280Y-115185420D01*
X48505280Y-115185420D02*
X48472260Y-115088900D01*
X48472260Y-115088900D02*
X48464640Y-114992380D01*
X48464640Y-114992380D02*
X48474800Y-114893320D01*
X48474800Y-114893320D02*
X48507820Y-114801880D01*
X48507820Y-114801880D02*
X48561160Y-114718060D01*
X48561160Y-114718060D02*
X48632280Y-114649480D01*
X48632280Y-114649480D02*
X48716100Y-114598680D01*
X48716100Y-114598680D02*
X48807540Y-114565660D01*
X48807540Y-114565660D02*
X48906600Y-114555500D01*
X48906600Y-114555500D02*
X48906600Y-114555500D01*
X44893400Y-114555500D02*
X44992460Y-114565660D01*
X44992460Y-114565660D02*
X45083900Y-114596140D01*
X45083900Y-114596140D02*
X45167720Y-114644400D01*
X45167720Y-114644400D02*
X45238840Y-114712980D01*
X45238840Y-114712980D02*
X45292180Y-114794260D01*
X45292180Y-114794260D02*
X45325200Y-114885700D01*
X45325200Y-114885700D02*
X45337900Y-114982220D01*
X45337900Y-114982220D02*
X45330280Y-115081280D01*
X45330280Y-115081280D02*
X45299800Y-115177800D01*
X45299800Y-115177800D02*
X45246460Y-115264160D01*
X45246460Y-115264160D02*
X45175340Y-115340360D01*
X45175340Y-115340360D02*
X45091520Y-115396240D01*
X45091520Y-115396240D02*
X44995000Y-115431800D01*
X44995000Y-115431800D02*
X44893400Y-115444500D01*
X44893400Y-115444500D02*
X44794340Y-115431800D01*
X44794340Y-115431800D02*
X44700360Y-115398780D01*
X44700360Y-115398780D02*
X44616540Y-115342900D01*
X44616540Y-115342900D02*
X44545420Y-115271780D01*
X44545420Y-115271780D02*
X44494620Y-115185420D01*
X44494620Y-115185420D02*
X44461600Y-115088900D01*
X44461600Y-115088900D02*
X44453980Y-114992380D01*
X44453980Y-114992380D02*
X44464140Y-114893320D01*
X44464140Y-114893320D02*
X44497160Y-114801880D01*
X44497160Y-114801880D02*
X44550500Y-114718060D01*
X44550500Y-114718060D02*
X44621620Y-114649480D01*
X44621620Y-114649480D02*
X44705440Y-114598680D01*
X44705440Y-114598680D02*
X44796880Y-114565660D01*
X44796880Y-114565660D02*
X44893400Y-114555500D01*
X44893400Y-114555500D02*
X44893400Y-114555500D01*
%TD*%
D11*
%TO.C,F1*%
X83950000Y-125345000D03*
X81150000Y-125345000D03*
%TD*%
D12*
%TO.C,J8*%
X59500000Y-117700000D03*
D13*
X65500000Y-117700000D03*
D14*
X62500000Y-113000000D03*
%TD*%
D15*
%TO.C,J4*%
X43725000Y-102500000D03*
D16*
X46265000Y-102500000D03*
%TD*%
D17*
%TO.C,U2*%
X36014000Y-126988100D03*
X40586000Y-126988100D03*
D18*
X38300000Y-118834700D03*
%TD*%
D19*
%TO.C,U6*%
X57250000Y-148062500D03*
X56750000Y-148062500D03*
X56250000Y-148062500D03*
X55750000Y-148062500D03*
X55250000Y-148062500D03*
X54750000Y-148062500D03*
D20*
X54062500Y-148750000D03*
X54062500Y-149250000D03*
X54062500Y-149750000D03*
X54062500Y-150250000D03*
X54062500Y-150750000D03*
X54062500Y-151250000D03*
D19*
X54750000Y-151937500D03*
X55250000Y-151937500D03*
X55750000Y-151937500D03*
X56250000Y-151937500D03*
X56750000Y-151937500D03*
X57250000Y-151937500D03*
D20*
X57937500Y-151250000D03*
X57937500Y-150750000D03*
X57937500Y-150250000D03*
X57937500Y-149750000D03*
X57937500Y-149250000D03*
X57937500Y-148750000D03*
D21*
X56000000Y-150000000D03*
%TD*%
D22*
%TO.C,R3*%
X51990000Y-138460000D03*
X53010000Y-138460000D03*
%TD*%
D23*
%TO.C,FB1*%
X56450000Y-140137500D03*
X56450000Y-142262500D03*
%TD*%
D24*
%TO.C,U7*%
X50022680Y-121147700D03*
X50022680Y-120500000D03*
X50022680Y-119852300D03*
X47777320Y-119852300D03*
X47777320Y-121147700D03*
%TD*%
D15*
%TO.C,J3*%
X32600000Y-141700000D03*
D16*
X32600000Y-139160000D03*
%TD*%
D25*
%TO.C,J5*%
X47545000Y-158195000D03*
X52545000Y-158195000D03*
D26*
X48745000Y-157095000D03*
X49395000Y-157095000D03*
X50045000Y-157095000D03*
X50695000Y-157095000D03*
X51345000Y-157095000D03*
D27*
X53770000Y-157145000D03*
D28*
X46170000Y-160945000D03*
D27*
X46320000Y-157145000D03*
D28*
X53920000Y-160945000D03*
%TD*%
D29*
%TO.C,C8*%
X49850000Y-149050000D03*
X49850000Y-150950000D03*
%TD*%
D30*
%TO.C,R6*%
X52760000Y-119850000D03*
X51740000Y-119850000D03*
%TD*%
D31*
%TO.C,C6*%
X41850000Y-116675000D03*
X41850000Y-116175000D03*
%TD*%
D30*
%TO.C,R2*%
X50910000Y-138460000D03*
X49890000Y-138460000D03*
%TD*%
D29*
%TO.C,C9*%
X52000000Y-149050000D03*
X52000000Y-150950000D03*
%TD*%
D15*
%TO.C,J7*%
X54425000Y-169800000D03*
D16*
X56965000Y-169800000D03*
X59505000Y-169800000D03*
X62045000Y-169800000D03*
X64585000Y-169800000D03*
X67125000Y-169800000D03*
X69665000Y-169800000D03*
X72205000Y-169800000D03*
X74745000Y-169800000D03*
X77285000Y-169800000D03*
X79825000Y-169800000D03*
X82365000Y-169800000D03*
%TD*%
D32*
%TO.C,SW1*%
X33270000Y-145250000D03*
X35480000Y-152550000D03*
D33*
X34370000Y-150400000D03*
D32*
X33270000Y-152550000D03*
X35480000Y-145250000D03*
D33*
X34370000Y-147400000D03*
D34*
X36130000Y-146650000D03*
X36130000Y-149650000D03*
X36130000Y-151150000D03*
%TD*%
D35*
%TO.C,R4*%
X52800000Y-115000000D03*
X52800000Y-116020000D03*
%TD*%
D36*
%TO.C,Q1*%
X54650000Y-136337500D03*
X56550000Y-136337500D03*
X55600000Y-134462500D03*
%TD*%
D37*
%TO.C,U5*%
X47712700Y-132340000D03*
D38*
X45172700Y-129800000D03*
X47712700Y-127260000D03*
%TD*%
D39*
%TO.C,C13*%
X38450000Y-149700000D03*
X40350000Y-149700000D03*
%TD*%
D15*
%TO.C,J2*%
X32600000Y-135100000D03*
D16*
X32600000Y-132560000D03*
%TD*%
D15*
%TO.C,J1*%
X50050000Y-102500000D03*
D16*
X52590000Y-102500000D03*
%TD*%
D40*
%TO.C,C3*%
X36025000Y-129458900D03*
X37575000Y-129458900D03*
%TD*%
D30*
%TO.C,R7*%
X39410000Y-147200000D03*
X38390000Y-147200000D03*
%TD*%
D29*
%TO.C,C7*%
X83500000Y-152805000D03*
X83500000Y-154705000D03*
%TD*%
D41*
%TO.C,C12*%
X52800000Y-120900000D03*
X52300000Y-120900000D03*
%TD*%
D42*
%TO.C,U3*%
X40582500Y-137110000D03*
X40582500Y-138060000D03*
X40582500Y-139010000D03*
X42857500Y-139010000D03*
X42857500Y-137110000D03*
%TD*%
D43*
%TO.C,U4*%
X78600000Y-154255000D03*
X78600000Y-152985000D03*
X78600000Y-151715000D03*
X78600000Y-150445000D03*
X78600000Y-149175000D03*
X78600000Y-147905000D03*
X78600000Y-146635000D03*
X78600000Y-145365000D03*
X78600000Y-144095000D03*
X78600000Y-142825000D03*
X78600000Y-141555000D03*
X78600000Y-140285000D03*
X78600000Y-139015000D03*
X78600000Y-137745000D03*
D44*
X75815000Y-136745000D03*
X74545000Y-136745000D03*
X73275000Y-136745000D03*
X72005000Y-136745000D03*
X70735000Y-136745000D03*
X69465000Y-136745000D03*
X68195000Y-136745000D03*
X66925000Y-136745000D03*
X65655000Y-136745000D03*
X64385000Y-136745000D03*
D43*
X61600000Y-137745000D03*
X61600000Y-139015000D03*
X61600000Y-140285000D03*
X61600000Y-141555000D03*
X61600000Y-142825000D03*
X61600000Y-144095000D03*
X61600000Y-145365000D03*
X61600000Y-146635000D03*
X61600000Y-147905000D03*
X61600000Y-149175000D03*
X61600000Y-150445000D03*
X61600000Y-151715000D03*
X61600000Y-152985000D03*
X61600000Y-154255000D03*
D45*
X71100000Y-146755000D03*
%TD*%
D46*
%TO.C,H1*%
X34800000Y-104500000D03*
D33*
X37080419Y-102219581D03*
X34800000Y-107725000D03*
X37080419Y-106780419D03*
X31575000Y-104500000D03*
X32519581Y-102219581D03*
X38025000Y-104500000D03*
X34800000Y-101275000D03*
X32519581Y-106780419D03*
%TD*%
D47*
%TO.C,C11*%
X54750000Y-145800000D03*
X52850000Y-145800000D03*
%TD*%
D15*
%TO.C,J6*%
X94100000Y-122620000D03*
D16*
X94100000Y-125160000D03*
X94100000Y-127700000D03*
X94100000Y-130240000D03*
X94100000Y-132780000D03*
X94100000Y-135320000D03*
X94100000Y-137860000D03*
X94100000Y-140400000D03*
X94100000Y-142940000D03*
X94100000Y-145480000D03*
X94100000Y-148020000D03*
X94100000Y-150560000D03*
X94100000Y-153100000D03*
X94100000Y-155640000D03*
X94100000Y-158180000D03*
X94100000Y-160720000D03*
%TD*%
D33*
%TO.C,H2*%
X32519581Y-171680419D03*
X34800000Y-166175000D03*
X37080419Y-167119581D03*
X38025000Y-169400000D03*
X37080419Y-171680419D03*
X34800000Y-172625000D03*
X32519581Y-167119581D03*
D46*
X34800000Y-169400000D03*
D33*
X31575000Y-169400000D03*
%TD*%
D48*
%TO.C,U1*%
X75750000Y-129900000D03*
X75750000Y-127600000D03*
X75750000Y-125300000D03*
D49*
X69450000Y-127600000D03*
%TD*%
D50*
%TO.C,R1*%
X38820000Y-153450000D03*
X38180000Y-153450000D03*
%TD*%
D33*
%TO.C,H3*%
X94280419Y-171780419D03*
D46*
X92000000Y-169500000D03*
D33*
X92000000Y-172725000D03*
X95225000Y-169500000D03*
X89719581Y-171780419D03*
X94280419Y-167219581D03*
X92000000Y-166275000D03*
X88775000Y-169500000D03*
X89719581Y-167219581D03*
%TD*%
D29*
%TO.C,C10*%
X81400000Y-152805000D03*
X81400000Y-154705000D03*
%TD*%
D51*
%TO.C,C4*%
X45720000Y-137160000D03*
X45720000Y-140110000D03*
%TD*%
D52*
%TO.C,R5*%
X36137500Y-131700000D03*
X39062500Y-131700000D03*
%TD*%
D53*
%TO.C,C2*%
X79250000Y-125300000D03*
X78290000Y-125300000D03*
%TD*%
D33*
%TO.C,H4*%
X94280419Y-102219581D03*
X95225000Y-104500000D03*
X89719581Y-106780419D03*
X92000000Y-101275000D03*
X88775000Y-104500000D03*
X94280419Y-106780419D03*
X89719581Y-102219581D03*
D46*
X92000000Y-104500000D03*
D33*
X92000000Y-107725000D03*
%TD*%
D54*
%TO.C,C1*%
X38500000Y-138100000D03*
X35550000Y-138100000D03*
%TD*%
D55*
%TO.C,D1*%
X35900000Y-158725000D03*
D56*
X35900000Y-156185000D03*
%TD*%
D57*
%TO.C,PHOTO1*%
X48898980Y-115000000D03*
X44901020Y-115000000D03*
%TD*%
D29*
%TO.C,C5*%
X78350000Y-127550000D03*
X78350000Y-129450000D03*
%TD*%
D58*
%TO.C,Q2*%
X54100000Y-140367500D03*
X52200000Y-140367500D03*
X53150000Y-142242500D03*
%TD*%
M02*
