%TF.GenerationSoftware,KiCad,Pcbnew,(6.0.1)*%
%TF.CreationDate,2022-03-22T21:47:25-04:00*%
%TF.ProjectId,Looking Glass,4c6f6f6b-696e-4672-9047-6c6173732e6b,rev?*%
%TF.SameCoordinates,Original*%
%TF.FileFunction,Legend,Top*%
%TF.FilePolarity,Positive*%
%FSLAX46Y46*%
G04 Gerber Fmt 4.6, Leading zero omitted, Abs format (unit mm)*
G04 Created by KiCad (PCBNEW (6.0.1)) date 2022-03-22 21:47:25*
%MOMM*%
%LPD*%
G01*
G04 APERTURE LIST*
%ADD10C,0.150000*%
%ADD11C,0.127000*%
%ADD12C,0.120000*%
%ADD13C,0.152400*%
%ADD14C,0.203200*%
G04 APERTURE END LIST*
D10*
X47519047Y-106547380D02*
X48090476Y-106547380D01*
X47804761Y-107547380D02*
X47804761Y-106547380D01*
X48804761Y-107499761D02*
X48709523Y-107547380D01*
X48519047Y-107547380D01*
X48423809Y-107499761D01*
X48376190Y-107404523D01*
X48376190Y-107023571D01*
X48423809Y-106928333D01*
X48519047Y-106880714D01*
X48709523Y-106880714D01*
X48804761Y-106928333D01*
X48852380Y-107023571D01*
X48852380Y-107118809D01*
X48376190Y-107214047D01*
X49709523Y-107547380D02*
X49709523Y-107023571D01*
X49661904Y-106928333D01*
X49566666Y-106880714D01*
X49376190Y-106880714D01*
X49280952Y-106928333D01*
X49709523Y-107499761D02*
X49614285Y-107547380D01*
X49376190Y-107547380D01*
X49280952Y-107499761D01*
X49233333Y-107404523D01*
X49233333Y-107309285D01*
X49280952Y-107214047D01*
X49376190Y-107166428D01*
X49614285Y-107166428D01*
X49709523Y-107118809D01*
X50185714Y-107547380D02*
X50185714Y-106880714D01*
X50185714Y-106975952D02*
X50233333Y-106928333D01*
X50328571Y-106880714D01*
X50471428Y-106880714D01*
X50566666Y-106928333D01*
X50614285Y-107023571D01*
X50614285Y-107547380D01*
X50614285Y-107023571D02*
X50661904Y-106928333D01*
X50757142Y-106880714D01*
X50900000Y-106880714D01*
X50995238Y-106928333D01*
X51042857Y-107023571D01*
X51042857Y-107547380D01*
X52709523Y-106880714D02*
X52709523Y-107547380D01*
X52471428Y-106499761D02*
X52233333Y-107214047D01*
X52852380Y-107214047D01*
X53661904Y-106880714D02*
X53661904Y-107547380D01*
X53423809Y-106499761D02*
X53185714Y-107214047D01*
X53804761Y-107214047D01*
X54185714Y-107452142D02*
X54233333Y-107499761D01*
X54185714Y-107547380D01*
X54138095Y-107499761D01*
X54185714Y-107452142D01*
X54185714Y-107547380D01*
X54185714Y-106928333D02*
X54233333Y-106975952D01*
X54185714Y-107023571D01*
X54138095Y-106975952D01*
X54185714Y-106928333D01*
X54185714Y-107023571D01*
X55280952Y-106547380D02*
X55852380Y-106547380D01*
X55566666Y-107547380D02*
X55566666Y-106547380D01*
X56185714Y-107547380D02*
X56185714Y-106547380D01*
X56614285Y-107547380D02*
X56614285Y-107023571D01*
X56566666Y-106928333D01*
X56471428Y-106880714D01*
X56328571Y-106880714D01*
X56233333Y-106928333D01*
X56185714Y-106975952D01*
X57471428Y-107499761D02*
X57376190Y-107547380D01*
X57185714Y-107547380D01*
X57090476Y-107499761D01*
X57042857Y-107404523D01*
X57042857Y-107023571D01*
X57090476Y-106928333D01*
X57185714Y-106880714D01*
X57376190Y-106880714D01*
X57471428Y-106928333D01*
X57519047Y-107023571D01*
X57519047Y-107118809D01*
X57042857Y-107214047D01*
X59185714Y-107547380D02*
X58709523Y-107547380D01*
X58709523Y-106547380D01*
X59661904Y-107547380D02*
X59566666Y-107499761D01*
X59519047Y-107452142D01*
X59471428Y-107356904D01*
X59471428Y-107071190D01*
X59519047Y-106975952D01*
X59566666Y-106928333D01*
X59661904Y-106880714D01*
X59804761Y-106880714D01*
X59900000Y-106928333D01*
X59947619Y-106975952D01*
X59995238Y-107071190D01*
X59995238Y-107356904D01*
X59947619Y-107452142D01*
X59900000Y-107499761D01*
X59804761Y-107547380D01*
X59661904Y-107547380D01*
X60566666Y-107547380D02*
X60471428Y-107499761D01*
X60423809Y-107452142D01*
X60376190Y-107356904D01*
X60376190Y-107071190D01*
X60423809Y-106975952D01*
X60471428Y-106928333D01*
X60566666Y-106880714D01*
X60709523Y-106880714D01*
X60804761Y-106928333D01*
X60852380Y-106975952D01*
X60900000Y-107071190D01*
X60900000Y-107356904D01*
X60852380Y-107452142D01*
X60804761Y-107499761D01*
X60709523Y-107547380D01*
X60566666Y-107547380D01*
X61328571Y-107547380D02*
X61328571Y-106547380D01*
X61423809Y-107166428D02*
X61709523Y-107547380D01*
X61709523Y-106880714D02*
X61328571Y-107261666D01*
X62138095Y-107547380D02*
X62138095Y-106880714D01*
X62138095Y-106547380D02*
X62090476Y-106595000D01*
X62138095Y-106642619D01*
X62185714Y-106595000D01*
X62138095Y-106547380D01*
X62138095Y-106642619D01*
X62614285Y-106880714D02*
X62614285Y-107547380D01*
X62614285Y-106975952D02*
X62661904Y-106928333D01*
X62757142Y-106880714D01*
X62900000Y-106880714D01*
X62995238Y-106928333D01*
X63042857Y-107023571D01*
X63042857Y-107547380D01*
X63947619Y-106880714D02*
X63947619Y-107690238D01*
X63900000Y-107785476D01*
X63852380Y-107833095D01*
X63757142Y-107880714D01*
X63614285Y-107880714D01*
X63519047Y-107833095D01*
X63947619Y-107499761D02*
X63852380Y-107547380D01*
X63661904Y-107547380D01*
X63566666Y-107499761D01*
X63519047Y-107452142D01*
X63471428Y-107356904D01*
X63471428Y-107071190D01*
X63519047Y-106975952D01*
X63566666Y-106928333D01*
X63661904Y-106880714D01*
X63852380Y-106880714D01*
X63947619Y-106928333D01*
X65709523Y-106595000D02*
X65614285Y-106547380D01*
X65471428Y-106547380D01*
X65328571Y-106595000D01*
X65233333Y-106690238D01*
X65185714Y-106785476D01*
X65138095Y-106975952D01*
X65138095Y-107118809D01*
X65185714Y-107309285D01*
X65233333Y-107404523D01*
X65328571Y-107499761D01*
X65471428Y-107547380D01*
X65566666Y-107547380D01*
X65709523Y-107499761D01*
X65757142Y-107452142D01*
X65757142Y-107118809D01*
X65566666Y-107118809D01*
X66328571Y-107547380D02*
X66233333Y-107499761D01*
X66185714Y-107404523D01*
X66185714Y-106547380D01*
X67138095Y-107547380D02*
X67138095Y-107023571D01*
X67090476Y-106928333D01*
X66995238Y-106880714D01*
X66804761Y-106880714D01*
X66709523Y-106928333D01*
X67138095Y-107499761D02*
X67042857Y-107547380D01*
X66804761Y-107547380D01*
X66709523Y-107499761D01*
X66661904Y-107404523D01*
X66661904Y-107309285D01*
X66709523Y-107214047D01*
X66804761Y-107166428D01*
X67042857Y-107166428D01*
X67138095Y-107118809D01*
X67566666Y-107499761D02*
X67661904Y-107547380D01*
X67852380Y-107547380D01*
X67947619Y-107499761D01*
X67995238Y-107404523D01*
X67995238Y-107356904D01*
X67947619Y-107261666D01*
X67852380Y-107214047D01*
X67709523Y-107214047D01*
X67614285Y-107166428D01*
X67566666Y-107071190D01*
X67566666Y-107023571D01*
X67614285Y-106928333D01*
X67709523Y-106880714D01*
X67852380Y-106880714D01*
X67947619Y-106928333D01*
X68376190Y-107499761D02*
X68471428Y-107547380D01*
X68661904Y-107547380D01*
X68757142Y-107499761D01*
X68804761Y-107404523D01*
X68804761Y-107356904D01*
X68757142Y-107261666D01*
X68661904Y-107214047D01*
X68519047Y-107214047D01*
X68423809Y-107166428D01*
X68376190Y-107071190D01*
X68376190Y-107023571D01*
X68423809Y-106928333D01*
X68519047Y-106880714D01*
X68661904Y-106880714D01*
X68757142Y-106928333D01*
X69947619Y-107499761D02*
X70090476Y-107547380D01*
X70328571Y-107547380D01*
X70423809Y-107499761D01*
X70471428Y-107452142D01*
X70519047Y-107356904D01*
X70519047Y-107261666D01*
X70471428Y-107166428D01*
X70423809Y-107118809D01*
X70328571Y-107071190D01*
X70138095Y-107023571D01*
X70042857Y-106975952D01*
X69995238Y-106928333D01*
X69947619Y-106833095D01*
X69947619Y-106737857D01*
X69995238Y-106642619D01*
X70042857Y-106595000D01*
X70138095Y-106547380D01*
X70376190Y-106547380D01*
X70519047Y-106595000D01*
X70852380Y-106880714D02*
X71090476Y-107547380D01*
X71328571Y-106880714D02*
X71090476Y-107547380D01*
X70995238Y-107785476D01*
X70947619Y-107833095D01*
X70852380Y-107880714D01*
X71661904Y-107499761D02*
X71757142Y-107547380D01*
X71947619Y-107547380D01*
X72042857Y-107499761D01*
X72090476Y-107404523D01*
X72090476Y-107356904D01*
X72042857Y-107261666D01*
X71947619Y-107214047D01*
X71804761Y-107214047D01*
X71709523Y-107166428D01*
X71661904Y-107071190D01*
X71661904Y-107023571D01*
X71709523Y-106928333D01*
X71804761Y-106880714D01*
X71947619Y-106880714D01*
X72042857Y-106928333D01*
X72376190Y-106880714D02*
X72757142Y-106880714D01*
X72519047Y-106547380D02*
X72519047Y-107404523D01*
X72566666Y-107499761D01*
X72661904Y-107547380D01*
X72757142Y-107547380D01*
X73471428Y-107499761D02*
X73376190Y-107547380D01*
X73185714Y-107547380D01*
X73090476Y-107499761D01*
X73042857Y-107404523D01*
X73042857Y-107023571D01*
X73090476Y-106928333D01*
X73185714Y-106880714D01*
X73376190Y-106880714D01*
X73471428Y-106928333D01*
X73519047Y-107023571D01*
X73519047Y-107118809D01*
X73042857Y-107214047D01*
X73947619Y-107547380D02*
X73947619Y-106880714D01*
X73947619Y-106975952D02*
X73995238Y-106928333D01*
X74090476Y-106880714D01*
X74233333Y-106880714D01*
X74328571Y-106928333D01*
X74376190Y-107023571D01*
X74376190Y-107547380D01*
X74376190Y-107023571D02*
X74423809Y-106928333D01*
X74519047Y-106880714D01*
X74661904Y-106880714D01*
X74757142Y-106928333D01*
X74804761Y-107023571D01*
X74804761Y-107547380D01*
X76042857Y-107547380D02*
X76042857Y-106547380D01*
X76423809Y-106547380D01*
X76519047Y-106595000D01*
X76566666Y-106642619D01*
X76614285Y-106737857D01*
X76614285Y-106880714D01*
X76566666Y-106975952D01*
X76519047Y-107023571D01*
X76423809Y-107071190D01*
X76042857Y-107071190D01*
X77614285Y-107452142D02*
X77566666Y-107499761D01*
X77423809Y-107547380D01*
X77328571Y-107547380D01*
X77185714Y-107499761D01*
X77090476Y-107404523D01*
X77042857Y-107309285D01*
X76995238Y-107118809D01*
X76995238Y-106975952D01*
X77042857Y-106785476D01*
X77090476Y-106690238D01*
X77185714Y-106595000D01*
X77328571Y-106547380D01*
X77423809Y-106547380D01*
X77566666Y-106595000D01*
X77614285Y-106642619D01*
X78376190Y-107023571D02*
X78519047Y-107071190D01*
X78566666Y-107118809D01*
X78614285Y-107214047D01*
X78614285Y-107356904D01*
X78566666Y-107452142D01*
X78519047Y-107499761D01*
X78423809Y-107547380D01*
X78042857Y-107547380D01*
X78042857Y-106547380D01*
X78376190Y-106547380D01*
X78471428Y-106595000D01*
X78519047Y-106642619D01*
X78566666Y-106737857D01*
X78566666Y-106833095D01*
X78519047Y-106928333D01*
X78471428Y-106975952D01*
X78376190Y-107023571D01*
X78042857Y-107023571D01*
X80376190Y-107547380D02*
X80042857Y-107071190D01*
X79804761Y-107547380D02*
X79804761Y-106547380D01*
X80185714Y-106547380D01*
X80280952Y-106595000D01*
X80328571Y-106642619D01*
X80376190Y-106737857D01*
X80376190Y-106880714D01*
X80328571Y-106975952D01*
X80280952Y-107023571D01*
X80185714Y-107071190D01*
X79804761Y-107071190D01*
X81185714Y-107499761D02*
X81090476Y-107547380D01*
X80899999Y-107547380D01*
X80804761Y-107499761D01*
X80757142Y-107404523D01*
X80757142Y-107023571D01*
X80804761Y-106928333D01*
X80899999Y-106880714D01*
X81090476Y-106880714D01*
X81185714Y-106928333D01*
X81233333Y-107023571D01*
X81233333Y-107118809D01*
X80757142Y-107214047D01*
X81566666Y-106880714D02*
X81804761Y-107547380D01*
X82042857Y-106880714D01*
X82423809Y-107452142D02*
X82471428Y-107499761D01*
X82423809Y-107547380D01*
X82376190Y-107499761D01*
X82423809Y-107452142D01*
X82423809Y-107547380D01*
X84185714Y-107547380D02*
X83614285Y-107547380D01*
X83900000Y-107547380D02*
X83900000Y-106547380D01*
X83804761Y-106690238D01*
X83709523Y-106785476D01*
X83614285Y-106833095D01*
X44185714Y-109109761D02*
X44328571Y-109157380D01*
X44566666Y-109157380D01*
X44661904Y-109109761D01*
X44709523Y-109062142D01*
X44757142Y-108966904D01*
X44757142Y-108871666D01*
X44709523Y-108776428D01*
X44661904Y-108728809D01*
X44566666Y-108681190D01*
X44376190Y-108633571D01*
X44280952Y-108585952D01*
X44233333Y-108538333D01*
X44185714Y-108443095D01*
X44185714Y-108347857D01*
X44233333Y-108252619D01*
X44280952Y-108205000D01*
X44376190Y-108157380D01*
X44614285Y-108157380D01*
X44757142Y-108205000D01*
X45566666Y-109109761D02*
X45471428Y-109157380D01*
X45280952Y-109157380D01*
X45185714Y-109109761D01*
X45138095Y-109014523D01*
X45138095Y-108633571D01*
X45185714Y-108538333D01*
X45280952Y-108490714D01*
X45471428Y-108490714D01*
X45566666Y-108538333D01*
X45614285Y-108633571D01*
X45614285Y-108728809D01*
X45138095Y-108824047D01*
X45900000Y-108490714D02*
X46280952Y-108490714D01*
X46042857Y-108157380D02*
X46042857Y-109014523D01*
X46090476Y-109109761D01*
X46185714Y-109157380D01*
X46280952Y-109157380D01*
X46614285Y-109157380D02*
X46614285Y-108157380D01*
X47042857Y-109157380D02*
X47042857Y-108633571D01*
X46995238Y-108538333D01*
X46900000Y-108490714D01*
X46757142Y-108490714D01*
X46661904Y-108538333D01*
X46614285Y-108585952D01*
X48757142Y-109157380D02*
X48280952Y-109157380D01*
X48280952Y-108157380D01*
X49471428Y-109109761D02*
X49376190Y-109157380D01*
X49185714Y-109157380D01*
X49090476Y-109109761D01*
X49042857Y-109014523D01*
X49042857Y-108633571D01*
X49090476Y-108538333D01*
X49185714Y-108490714D01*
X49376190Y-108490714D01*
X49471428Y-108538333D01*
X49519047Y-108633571D01*
X49519047Y-108728809D01*
X49042857Y-108824047D01*
X50328571Y-109109761D02*
X50233333Y-109157380D01*
X50042857Y-109157380D01*
X49947619Y-109109761D01*
X49900000Y-109014523D01*
X49900000Y-108633571D01*
X49947619Y-108538333D01*
X50042857Y-108490714D01*
X50233333Y-108490714D01*
X50328571Y-108538333D01*
X50376190Y-108633571D01*
X50376190Y-108728809D01*
X49900000Y-108824047D01*
X50852380Y-109109761D02*
X50852380Y-109157380D01*
X50804761Y-109252619D01*
X50757142Y-109300238D01*
X52519047Y-109157380D02*
X52042857Y-109157380D01*
X52042857Y-108157380D01*
X53280952Y-109157380D02*
X53280952Y-108633571D01*
X53233333Y-108538333D01*
X53138095Y-108490714D01*
X52947619Y-108490714D01*
X52852380Y-108538333D01*
X53280952Y-109109761D02*
X53185714Y-109157380D01*
X52947619Y-109157380D01*
X52852380Y-109109761D01*
X52804761Y-109014523D01*
X52804761Y-108919285D01*
X52852380Y-108824047D01*
X52947619Y-108776428D01*
X53185714Y-108776428D01*
X53280952Y-108728809D01*
X53757142Y-109157380D02*
X53757142Y-108490714D01*
X53757142Y-108681190D02*
X53804761Y-108585952D01*
X53852380Y-108538333D01*
X53947619Y-108490714D01*
X54042857Y-108490714D01*
X54376190Y-109157380D02*
X54376190Y-108490714D01*
X54376190Y-108157380D02*
X54328571Y-108205000D01*
X54376190Y-108252619D01*
X54423809Y-108205000D01*
X54376190Y-108157380D01*
X54376190Y-108252619D01*
X54804761Y-109109761D02*
X54900000Y-109157380D01*
X55090476Y-109157380D01*
X55185714Y-109109761D01*
X55233333Y-109014523D01*
X55233333Y-108966904D01*
X55185714Y-108871666D01*
X55090476Y-108824047D01*
X54947619Y-108824047D01*
X54852380Y-108776428D01*
X54804761Y-108681190D01*
X54804761Y-108633571D01*
X54852380Y-108538333D01*
X54947619Y-108490714D01*
X55090476Y-108490714D01*
X55185714Y-108538333D01*
X55614285Y-109109761D02*
X55709523Y-109157380D01*
X55900000Y-109157380D01*
X55995238Y-109109761D01*
X56042857Y-109014523D01*
X56042857Y-108966904D01*
X55995238Y-108871666D01*
X55900000Y-108824047D01*
X55757142Y-108824047D01*
X55661904Y-108776428D01*
X55614285Y-108681190D01*
X55614285Y-108633571D01*
X55661904Y-108538333D01*
X55757142Y-108490714D01*
X55900000Y-108490714D01*
X55995238Y-108538333D01*
X56900000Y-109157380D02*
X56900000Y-108633571D01*
X56852380Y-108538333D01*
X56757142Y-108490714D01*
X56566666Y-108490714D01*
X56471428Y-108538333D01*
X56900000Y-109109761D02*
X56804761Y-109157380D01*
X56566666Y-109157380D01*
X56471428Y-109109761D01*
X56423809Y-109014523D01*
X56423809Y-108919285D01*
X56471428Y-108824047D01*
X56566666Y-108776428D01*
X56804761Y-108776428D01*
X56900000Y-108728809D01*
X58138095Y-109157380D02*
X58138095Y-108157380D01*
X58519047Y-108157380D01*
X58614285Y-108205000D01*
X58661904Y-108252619D01*
X58709523Y-108347857D01*
X58709523Y-108490714D01*
X58661904Y-108585952D01*
X58614285Y-108633571D01*
X58519047Y-108681190D01*
X58138095Y-108681190D01*
X59138095Y-109157380D02*
X59138095Y-108157380D01*
X59566666Y-109157380D02*
X59566666Y-108633571D01*
X59519047Y-108538333D01*
X59423809Y-108490714D01*
X59280952Y-108490714D01*
X59185714Y-108538333D01*
X59138095Y-108585952D01*
X60042857Y-109157380D02*
X60042857Y-108490714D01*
X60042857Y-108157380D02*
X59995238Y-108205000D01*
X60042857Y-108252619D01*
X60090476Y-108205000D01*
X60042857Y-108157380D01*
X60042857Y-108252619D01*
X60661904Y-109157380D02*
X60566666Y-109109761D01*
X60519047Y-109014523D01*
X60519047Y-108157380D01*
X61185714Y-109157380D02*
X61090476Y-109109761D01*
X61042857Y-109014523D01*
X61042857Y-108157380D01*
X61566666Y-109157380D02*
X61566666Y-108490714D01*
X61566666Y-108157380D02*
X61519047Y-108205000D01*
X61566666Y-108252619D01*
X61614285Y-108205000D01*
X61566666Y-108157380D01*
X61566666Y-108252619D01*
X62042857Y-108490714D02*
X62042857Y-109490714D01*
X62042857Y-108538333D02*
X62138095Y-108490714D01*
X62328571Y-108490714D01*
X62423809Y-108538333D01*
X62471428Y-108585952D01*
X62519047Y-108681190D01*
X62519047Y-108966904D01*
X62471428Y-109062142D01*
X62423809Y-109109761D01*
X62328571Y-109157380D01*
X62138095Y-109157380D01*
X62042857Y-109109761D01*
X62995238Y-109109761D02*
X62995238Y-109157380D01*
X62947619Y-109252619D01*
X62900000Y-109300238D01*
X64757142Y-109157380D02*
X64423809Y-108681190D01*
X64185714Y-109157380D02*
X64185714Y-108157380D01*
X64566666Y-108157380D01*
X64661904Y-108205000D01*
X64709523Y-108252619D01*
X64757142Y-108347857D01*
X64757142Y-108490714D01*
X64709523Y-108585952D01*
X64661904Y-108633571D01*
X64566666Y-108681190D01*
X64185714Y-108681190D01*
X65185714Y-109157380D02*
X65185714Y-108490714D01*
X65185714Y-108157380D02*
X65138095Y-108205000D01*
X65185714Y-108252619D01*
X65233333Y-108205000D01*
X65185714Y-108157380D01*
X65185714Y-108252619D01*
X66090476Y-109109761D02*
X65995238Y-109157380D01*
X65804761Y-109157380D01*
X65709523Y-109109761D01*
X65661904Y-109062142D01*
X65614285Y-108966904D01*
X65614285Y-108681190D01*
X65661904Y-108585952D01*
X65709523Y-108538333D01*
X65804761Y-108490714D01*
X65995238Y-108490714D01*
X66090476Y-108538333D01*
X66519047Y-109157380D02*
X66519047Y-108157380D01*
X66947619Y-109157380D02*
X66947619Y-108633571D01*
X66900000Y-108538333D01*
X66804761Y-108490714D01*
X66661904Y-108490714D01*
X66566666Y-108538333D01*
X66519047Y-108585952D01*
X67852380Y-109157380D02*
X67852380Y-108633571D01*
X67804761Y-108538333D01*
X67709523Y-108490714D01*
X67519047Y-108490714D01*
X67423809Y-108538333D01*
X67852380Y-109109761D02*
X67757142Y-109157380D01*
X67519047Y-109157380D01*
X67423809Y-109109761D01*
X67376190Y-109014523D01*
X67376190Y-108919285D01*
X67423809Y-108824047D01*
X67519047Y-108776428D01*
X67757142Y-108776428D01*
X67852380Y-108728809D01*
X68328571Y-109157380D02*
X68328571Y-108490714D01*
X68328571Y-108681190D02*
X68376190Y-108585952D01*
X68423809Y-108538333D01*
X68519047Y-108490714D01*
X68614285Y-108490714D01*
X69376190Y-109157380D02*
X69376190Y-108157380D01*
X69376190Y-109109761D02*
X69280952Y-109157380D01*
X69090476Y-109157380D01*
X68995238Y-109109761D01*
X68947619Y-109062142D01*
X68900000Y-108966904D01*
X68900000Y-108681190D01*
X68947619Y-108585952D01*
X68995238Y-108538333D01*
X69090476Y-108490714D01*
X69280952Y-108490714D01*
X69376190Y-108538333D01*
X71185714Y-109157380D02*
X70852380Y-108681190D01*
X70614285Y-109157380D02*
X70614285Y-108157380D01*
X70995238Y-108157380D01*
X71090476Y-108205000D01*
X71138095Y-108252619D01*
X71185714Y-108347857D01*
X71185714Y-108490714D01*
X71138095Y-108585952D01*
X71090476Y-108633571D01*
X70995238Y-108681190D01*
X70614285Y-108681190D01*
X71614285Y-109157380D02*
X71614285Y-108157380D01*
X72042857Y-109157380D02*
X72042857Y-108633571D01*
X71995238Y-108538333D01*
X71900000Y-108490714D01*
X71757142Y-108490714D01*
X71661904Y-108538333D01*
X71614285Y-108585952D01*
X72900000Y-109109761D02*
X72804761Y-109157380D01*
X72614285Y-109157380D01*
X72519047Y-109109761D01*
X72471428Y-109014523D01*
X72471428Y-108633571D01*
X72519047Y-108538333D01*
X72614285Y-108490714D01*
X72804761Y-108490714D01*
X72900000Y-108538333D01*
X72947619Y-108633571D01*
X72947619Y-108728809D01*
X72471428Y-108824047D01*
X73757142Y-109109761D02*
X73661904Y-109157380D01*
X73471428Y-109157380D01*
X73376190Y-109109761D01*
X73328571Y-109014523D01*
X73328571Y-108633571D01*
X73376190Y-108538333D01*
X73471428Y-108490714D01*
X73661904Y-108490714D01*
X73757142Y-108538333D01*
X73804761Y-108633571D01*
X73804761Y-108728809D01*
X73328571Y-108824047D01*
X74280952Y-109109761D02*
X74280952Y-109157380D01*
X74233333Y-109252619D01*
X74185714Y-109300238D01*
X75471428Y-109157380D02*
X75471428Y-108157380D01*
X76042857Y-109157380D01*
X76042857Y-108157380D01*
X76519047Y-109157380D02*
X76519047Y-108490714D01*
X76519047Y-108157380D02*
X76471428Y-108205000D01*
X76519047Y-108252619D01*
X76566666Y-108205000D01*
X76519047Y-108157380D01*
X76519047Y-108252619D01*
X77423809Y-109109761D02*
X77328571Y-109157380D01*
X77138095Y-109157380D01*
X77042857Y-109109761D01*
X76995238Y-109062142D01*
X76947619Y-108966904D01*
X76947619Y-108681190D01*
X76995238Y-108585952D01*
X77042857Y-108538333D01*
X77138095Y-108490714D01*
X77328571Y-108490714D01*
X77423809Y-108538333D01*
X77852380Y-109157380D02*
X77852380Y-108157380D01*
X78280952Y-109157380D02*
X78280952Y-108633571D01*
X78233333Y-108538333D01*
X78138095Y-108490714D01*
X77995238Y-108490714D01*
X77900000Y-108538333D01*
X77852380Y-108585952D01*
X78900000Y-109157380D02*
X78804761Y-109109761D01*
X78757142Y-109062142D01*
X78709523Y-108966904D01*
X78709523Y-108681190D01*
X78757142Y-108585952D01*
X78804761Y-108538333D01*
X78900000Y-108490714D01*
X79042857Y-108490714D01*
X79138095Y-108538333D01*
X79185714Y-108585952D01*
X79233333Y-108681190D01*
X79233333Y-108966904D01*
X79185714Y-109062142D01*
X79138095Y-109109761D01*
X79042857Y-109157380D01*
X78900000Y-109157380D01*
X79804761Y-109157380D02*
X79709523Y-109109761D01*
X79661904Y-109014523D01*
X79661904Y-108157380D01*
X80614285Y-109157380D02*
X80614285Y-108633571D01*
X80566666Y-108538333D01*
X80471428Y-108490714D01*
X80280952Y-108490714D01*
X80185714Y-108538333D01*
X80614285Y-109109761D02*
X80519047Y-109157380D01*
X80280952Y-109157380D01*
X80185714Y-109109761D01*
X80138095Y-109014523D01*
X80138095Y-108919285D01*
X80185714Y-108824047D01*
X80280952Y-108776428D01*
X80519047Y-108776428D01*
X80614285Y-108728809D01*
X81042857Y-109109761D02*
X81138095Y-109157380D01*
X81328571Y-109157380D01*
X81423809Y-109109761D01*
X81471428Y-109014523D01*
X81471428Y-108966904D01*
X81423809Y-108871666D01*
X81328571Y-108824047D01*
X81185714Y-108824047D01*
X81090476Y-108776428D01*
X81042857Y-108681190D01*
X81042857Y-108633571D01*
X81090476Y-108538333D01*
X81185714Y-108490714D01*
X81328571Y-108490714D01*
X81423809Y-108538333D01*
X82614285Y-109109761D02*
X82757142Y-109157380D01*
X82995238Y-109157380D01*
X83090476Y-109109761D01*
X83138095Y-109062142D01*
X83185714Y-108966904D01*
X83185714Y-108871666D01*
X83138095Y-108776428D01*
X83090476Y-108728809D01*
X82995238Y-108681190D01*
X82804761Y-108633571D01*
X82709523Y-108585952D01*
X82661904Y-108538333D01*
X82614285Y-108443095D01*
X82614285Y-108347857D01*
X82661904Y-108252619D01*
X82709523Y-108205000D01*
X82804761Y-108157380D01*
X83042857Y-108157380D01*
X83185714Y-108205000D01*
X84042857Y-109109761D02*
X83947619Y-109157380D01*
X83757142Y-109157380D01*
X83661904Y-109109761D01*
X83614285Y-109062142D01*
X83566666Y-108966904D01*
X83566666Y-108681190D01*
X83614285Y-108585952D01*
X83661904Y-108538333D01*
X83757142Y-108490714D01*
X83947619Y-108490714D01*
X84042857Y-108538333D01*
X84471428Y-109157380D02*
X84471428Y-108157380D01*
X84900000Y-109157380D02*
X84900000Y-108633571D01*
X84852380Y-108538333D01*
X84757142Y-108490714D01*
X84614285Y-108490714D01*
X84519047Y-108538333D01*
X84471428Y-108585952D01*
X85804761Y-108490714D02*
X85804761Y-109157380D01*
X85376190Y-108490714D02*
X85376190Y-109014523D01*
X85423809Y-109109761D01*
X85519047Y-109157380D01*
X85661904Y-109157380D01*
X85757142Y-109109761D01*
X85804761Y-109062142D01*
X86709523Y-109109761D02*
X86614285Y-109157380D01*
X86423809Y-109157380D01*
X86328571Y-109109761D01*
X86280952Y-109062142D01*
X86233333Y-108966904D01*
X86233333Y-108681190D01*
X86280952Y-108585952D01*
X86328571Y-108538333D01*
X86423809Y-108490714D01*
X86614285Y-108490714D01*
X86709523Y-108538333D01*
X87138095Y-109157380D02*
X87138095Y-108157380D01*
X87566666Y-109157380D02*
X87566666Y-108633571D01*
X87519047Y-108538333D01*
X87423809Y-108490714D01*
X87280952Y-108490714D01*
X87185714Y-108538333D01*
X87138095Y-108585952D01*
X33452380Y-120761904D02*
X34261904Y-120761904D01*
X34357142Y-120714285D01*
X34404761Y-120666666D01*
X34452380Y-120571428D01*
X34452380Y-120380952D01*
X34404761Y-120285714D01*
X34357142Y-120238095D01*
X34261904Y-120190476D01*
X33452380Y-120190476D01*
X33547619Y-119761904D02*
X33500000Y-119714285D01*
X33452380Y-119619047D01*
X33452380Y-119380952D01*
X33500000Y-119285714D01*
X33547619Y-119238095D01*
X33642857Y-119190476D01*
X33738095Y-119190476D01*
X33880952Y-119238095D01*
X34452380Y-119809523D01*
X34452380Y-119190476D01*
X31297619Y-155140476D02*
X32297619Y-155140476D01*
X32297619Y-155521428D01*
X32250000Y-155616666D01*
X32202380Y-155664285D01*
X32107142Y-155711904D01*
X31964285Y-155711904D01*
X31869047Y-155664285D01*
X31821428Y-155616666D01*
X31773809Y-155521428D01*
X31773809Y-155140476D01*
X32297619Y-156330952D02*
X32297619Y-156521428D01*
X32250000Y-156616666D01*
X32154761Y-156711904D01*
X31964285Y-156759523D01*
X31630952Y-156759523D01*
X31440476Y-156711904D01*
X31345238Y-156616666D01*
X31297619Y-156521428D01*
X31297619Y-156330952D01*
X31345238Y-156235714D01*
X31440476Y-156140476D01*
X31630952Y-156092857D01*
X31964285Y-156092857D01*
X32154761Y-156140476D01*
X32250000Y-156235714D01*
X32297619Y-156330952D01*
X32297619Y-157092857D02*
X31297619Y-157330952D01*
X32011904Y-157521428D01*
X31297619Y-157711904D01*
X32297619Y-157950000D01*
X31821428Y-158330952D02*
X31821428Y-158664285D01*
X31297619Y-158807142D02*
X31297619Y-158330952D01*
X32297619Y-158330952D01*
X32297619Y-158807142D01*
X31297619Y-159807142D02*
X31773809Y-159473809D01*
X31297619Y-159235714D02*
X32297619Y-159235714D01*
X32297619Y-159616666D01*
X32250000Y-159711904D01*
X32202380Y-159759523D01*
X32107142Y-159807142D01*
X31964285Y-159807142D01*
X31869047Y-159759523D01*
X31821428Y-159711904D01*
X31773809Y-159616666D01*
X31773809Y-159235714D01*
X48238095Y-118202380D02*
X48238095Y-119011904D01*
X48285714Y-119107142D01*
X48333333Y-119154761D01*
X48428571Y-119202380D01*
X48619047Y-119202380D01*
X48714285Y-119154761D01*
X48761904Y-119107142D01*
X48809523Y-119011904D01*
X48809523Y-118202380D01*
X49190476Y-118202380D02*
X49857142Y-118202380D01*
X49428571Y-119202380D01*
X46938095Y-122952380D02*
X46938095Y-123761904D01*
X46985714Y-123857142D01*
X47033333Y-123904761D01*
X47128571Y-123952380D01*
X47319047Y-123952380D01*
X47414285Y-123904761D01*
X47461904Y-123857142D01*
X47509523Y-123761904D01*
X47509523Y-122952380D01*
X48461904Y-122952380D02*
X47985714Y-122952380D01*
X47938095Y-123428571D01*
X47985714Y-123380952D01*
X48080952Y-123333333D01*
X48319047Y-123333333D01*
X48414285Y-123380952D01*
X48461904Y-123428571D01*
X48509523Y-123523809D01*
X48509523Y-123761904D01*
X48461904Y-123857142D01*
X48414285Y-123904761D01*
X48319047Y-123952380D01*
X48080952Y-123952380D01*
X47985714Y-123904761D01*
X47938095Y-123857142D01*
X31247619Y-145130952D02*
X31723809Y-144797619D01*
X31247619Y-144559523D02*
X32247619Y-144559523D01*
X32247619Y-144940476D01*
X32200000Y-145035714D01*
X32152380Y-145083333D01*
X32057142Y-145130952D01*
X31914285Y-145130952D01*
X31819047Y-145083333D01*
X31771428Y-145035714D01*
X31723809Y-144940476D01*
X31723809Y-144559523D01*
X31771428Y-145559523D02*
X31771428Y-145892857D01*
X31247619Y-146035714D02*
X31247619Y-145559523D01*
X32247619Y-145559523D01*
X32247619Y-146035714D01*
X31295238Y-146416666D02*
X31247619Y-146559523D01*
X31247619Y-146797619D01*
X31295238Y-146892857D01*
X31342857Y-146940476D01*
X31438095Y-146988095D01*
X31533333Y-146988095D01*
X31628571Y-146940476D01*
X31676190Y-146892857D01*
X31723809Y-146797619D01*
X31771428Y-146607142D01*
X31819047Y-146511904D01*
X31866666Y-146464285D01*
X31961904Y-146416666D01*
X32057142Y-146416666D01*
X32152380Y-146464285D01*
X32200000Y-146511904D01*
X32247619Y-146607142D01*
X32247619Y-146845238D01*
X32200000Y-146988095D01*
%TO.C,F1*%
X82216666Y-127093571D02*
X81883333Y-127093571D01*
X81883333Y-127617380D02*
X81883333Y-126617380D01*
X82359523Y-126617380D01*
X83264285Y-127617380D02*
X82692857Y-127617380D01*
X82978571Y-127617380D02*
X82978571Y-126617380D01*
X82883333Y-126760238D01*
X82788095Y-126855476D01*
X82692857Y-126903095D01*
%TO.C,J8*%
X67616666Y-111402380D02*
X67616666Y-112116666D01*
X67569047Y-112259523D01*
X67473809Y-112354761D01*
X67330952Y-112402380D01*
X67235714Y-112402380D01*
X68235714Y-111830952D02*
X68140476Y-111783333D01*
X68092857Y-111735714D01*
X68045238Y-111640476D01*
X68045238Y-111592857D01*
X68092857Y-111497619D01*
X68140476Y-111450000D01*
X68235714Y-111402380D01*
X68426190Y-111402380D01*
X68521428Y-111450000D01*
X68569047Y-111497619D01*
X68616666Y-111592857D01*
X68616666Y-111640476D01*
X68569047Y-111735714D01*
X68521428Y-111783333D01*
X68426190Y-111830952D01*
X68235714Y-111830952D01*
X68140476Y-111878571D01*
X68092857Y-111926190D01*
X68045238Y-112021428D01*
X68045238Y-112211904D01*
X68092857Y-112307142D01*
X68140476Y-112354761D01*
X68235714Y-112402380D01*
X68426190Y-112402380D01*
X68521428Y-112354761D01*
X68569047Y-112307142D01*
X68616666Y-112211904D01*
X68616666Y-112021428D01*
X68569047Y-111926190D01*
X68521428Y-111878571D01*
X68426190Y-111830952D01*
%TO.C,J4*%
X40847380Y-102833333D02*
X41561666Y-102833333D01*
X41704523Y-102880952D01*
X41799761Y-102976190D01*
X41847380Y-103119047D01*
X41847380Y-103214285D01*
X41180714Y-101928571D02*
X41847380Y-101928571D01*
X40799761Y-102166666D02*
X41514047Y-102404761D01*
X41514047Y-101785714D01*
%TO.C,NT1*%
X37357142Y-112211280D02*
X37357142Y-111211280D01*
X37928571Y-112211280D01*
X37928571Y-111211280D01*
X38261904Y-111211280D02*
X38833333Y-111211280D01*
X38547619Y-112211280D02*
X38547619Y-111211280D01*
X39119047Y-111306519D02*
X39166666Y-111258900D01*
X39261904Y-111211280D01*
X39500000Y-111211280D01*
X39595238Y-111258900D01*
X39642857Y-111306519D01*
X39690476Y-111401757D01*
X39690476Y-111496995D01*
X39642857Y-111639852D01*
X39071428Y-112211280D01*
X39690476Y-112211280D01*
%TO.C,U6*%
X55088095Y-152752380D02*
X55088095Y-153561904D01*
X55135714Y-153657142D01*
X55183333Y-153704761D01*
X55278571Y-153752380D01*
X55469047Y-153752380D01*
X55564285Y-153704761D01*
X55611904Y-153657142D01*
X55659523Y-153561904D01*
X55659523Y-152752380D01*
X56564285Y-152752380D02*
X56373809Y-152752380D01*
X56278571Y-152800000D01*
X56230952Y-152847619D01*
X56135714Y-152990476D01*
X56088095Y-153180952D01*
X56088095Y-153561904D01*
X56135714Y-153657142D01*
X56183333Y-153704761D01*
X56278571Y-153752380D01*
X56469047Y-153752380D01*
X56564285Y-153704761D01*
X56611904Y-153657142D01*
X56659523Y-153561904D01*
X56659523Y-153323809D01*
X56611904Y-153228571D01*
X56564285Y-153180952D01*
X56469047Y-153133333D01*
X56278571Y-153133333D01*
X56183333Y-153180952D01*
X56135714Y-153228571D01*
X56088095Y-153323809D01*
%TO.C,R3*%
X52333333Y-137742380D02*
X52000000Y-137266190D01*
X51761904Y-137742380D02*
X51761904Y-136742380D01*
X52142857Y-136742380D01*
X52238095Y-136790000D01*
X52285714Y-136837619D01*
X52333333Y-136932857D01*
X52333333Y-137075714D01*
X52285714Y-137170952D01*
X52238095Y-137218571D01*
X52142857Y-137266190D01*
X51761904Y-137266190D01*
X52666666Y-136742380D02*
X53285714Y-136742380D01*
X52952380Y-137123333D01*
X53095238Y-137123333D01*
X53190476Y-137170952D01*
X53238095Y-137218571D01*
X53285714Y-137313809D01*
X53285714Y-137551904D01*
X53238095Y-137647142D01*
X53190476Y-137694761D01*
X53095238Y-137742380D01*
X52809523Y-137742380D01*
X52714285Y-137694761D01*
X52666666Y-137647142D01*
%TO.C,FB1*%
X57928571Y-142033333D02*
X57928571Y-142366666D01*
X58452380Y-142366666D02*
X57452380Y-142366666D01*
X57452380Y-141890476D01*
X57928571Y-141176190D02*
X57976190Y-141033333D01*
X58023809Y-140985714D01*
X58119047Y-140938095D01*
X58261904Y-140938095D01*
X58357142Y-140985714D01*
X58404761Y-141033333D01*
X58452380Y-141128571D01*
X58452380Y-141509523D01*
X57452380Y-141509523D01*
X57452380Y-141176190D01*
X57500000Y-141080952D01*
X57547619Y-141033333D01*
X57642857Y-140985714D01*
X57738095Y-140985714D01*
X57833333Y-141033333D01*
X57880952Y-141080952D01*
X57928571Y-141176190D01*
X57928571Y-141509523D01*
X58452380Y-139985714D02*
X58452380Y-140557142D01*
X58452380Y-140271428D02*
X57452380Y-140271428D01*
X57595238Y-140366666D01*
X57690476Y-140461904D01*
X57738095Y-140557142D01*
%TO.C,J3*%
X34602380Y-142383333D02*
X35316666Y-142383333D01*
X35459523Y-142430952D01*
X35554761Y-142526190D01*
X35602380Y-142669047D01*
X35602380Y-142764285D01*
X34602380Y-142002380D02*
X34602380Y-141383333D01*
X34983333Y-141716666D01*
X34983333Y-141573809D01*
X35030952Y-141478571D01*
X35078571Y-141430952D01*
X35173809Y-141383333D01*
X35411904Y-141383333D01*
X35507142Y-141430952D01*
X35554761Y-141478571D01*
X35602380Y-141573809D01*
X35602380Y-141859523D01*
X35554761Y-141954761D01*
X35507142Y-142002380D01*
%TO.C,J5*%
X49816666Y-164102380D02*
X49816666Y-164816666D01*
X49769047Y-164959523D01*
X49673809Y-165054761D01*
X49530952Y-165102380D01*
X49435714Y-165102380D01*
X50769047Y-164102380D02*
X50292857Y-164102380D01*
X50245238Y-164578571D01*
X50292857Y-164530952D01*
X50388095Y-164483333D01*
X50626190Y-164483333D01*
X50721428Y-164530952D01*
X50769047Y-164578571D01*
X50816666Y-164673809D01*
X50816666Y-164911904D01*
X50769047Y-165007142D01*
X50721428Y-165054761D01*
X50626190Y-165102380D01*
X50388095Y-165102380D01*
X50292857Y-165054761D01*
X50245238Y-165007142D01*
%TO.C,C8*%
X49683333Y-148057142D02*
X49635714Y-148104761D01*
X49492857Y-148152380D01*
X49397619Y-148152380D01*
X49254761Y-148104761D01*
X49159523Y-148009523D01*
X49111904Y-147914285D01*
X49064285Y-147723809D01*
X49064285Y-147580952D01*
X49111904Y-147390476D01*
X49159523Y-147295238D01*
X49254761Y-147200000D01*
X49397619Y-147152380D01*
X49492857Y-147152380D01*
X49635714Y-147200000D01*
X49683333Y-147247619D01*
X50254761Y-147580952D02*
X50159523Y-147533333D01*
X50111904Y-147485714D01*
X50064285Y-147390476D01*
X50064285Y-147342857D01*
X50111904Y-147247619D01*
X50159523Y-147200000D01*
X50254761Y-147152380D01*
X50445238Y-147152380D01*
X50540476Y-147200000D01*
X50588095Y-147247619D01*
X50635714Y-147342857D01*
X50635714Y-147390476D01*
X50588095Y-147485714D01*
X50540476Y-147533333D01*
X50445238Y-147580952D01*
X50254761Y-147580952D01*
X50159523Y-147628571D01*
X50111904Y-147676190D01*
X50064285Y-147771428D01*
X50064285Y-147961904D01*
X50111904Y-148057142D01*
X50159523Y-148104761D01*
X50254761Y-148152380D01*
X50445238Y-148152380D01*
X50540476Y-148104761D01*
X50588095Y-148057142D01*
X50635714Y-147961904D01*
X50635714Y-147771428D01*
X50588095Y-147676190D01*
X50540476Y-147628571D01*
X50445238Y-147580952D01*
%TO.C,R6*%
X52183333Y-119202380D02*
X51850000Y-118726190D01*
X51611904Y-119202380D02*
X51611904Y-118202380D01*
X51992857Y-118202380D01*
X52088095Y-118250000D01*
X52135714Y-118297619D01*
X52183333Y-118392857D01*
X52183333Y-118535714D01*
X52135714Y-118630952D01*
X52088095Y-118678571D01*
X51992857Y-118726190D01*
X51611904Y-118726190D01*
X53040476Y-118202380D02*
X52850000Y-118202380D01*
X52754761Y-118250000D01*
X52707142Y-118297619D01*
X52611904Y-118440476D01*
X52564285Y-118630952D01*
X52564285Y-119011904D01*
X52611904Y-119107142D01*
X52659523Y-119154761D01*
X52754761Y-119202380D01*
X52945238Y-119202380D01*
X53040476Y-119154761D01*
X53088095Y-119107142D01*
X53135714Y-119011904D01*
X53135714Y-118773809D01*
X53088095Y-118678571D01*
X53040476Y-118630952D01*
X52945238Y-118583333D01*
X52754761Y-118583333D01*
X52659523Y-118630952D01*
X52611904Y-118678571D01*
X52564285Y-118773809D01*
%TO.C,R2*%
X50183333Y-137752380D02*
X49850000Y-137276190D01*
X49611904Y-137752380D02*
X49611904Y-136752380D01*
X49992857Y-136752380D01*
X50088095Y-136800000D01*
X50135714Y-136847619D01*
X50183333Y-136942857D01*
X50183333Y-137085714D01*
X50135714Y-137180952D01*
X50088095Y-137228571D01*
X49992857Y-137276190D01*
X49611904Y-137276190D01*
X50564285Y-136847619D02*
X50611904Y-136800000D01*
X50707142Y-136752380D01*
X50945238Y-136752380D01*
X51040476Y-136800000D01*
X51088095Y-136847619D01*
X51135714Y-136942857D01*
X51135714Y-137038095D01*
X51088095Y-137180952D01*
X50516666Y-137752380D01*
X51135714Y-137752380D01*
%TO.C,C9*%
X51783333Y-148057142D02*
X51735714Y-148104761D01*
X51592857Y-148152380D01*
X51497619Y-148152380D01*
X51354761Y-148104761D01*
X51259523Y-148009523D01*
X51211904Y-147914285D01*
X51164285Y-147723809D01*
X51164285Y-147580952D01*
X51211904Y-147390476D01*
X51259523Y-147295238D01*
X51354761Y-147200000D01*
X51497619Y-147152380D01*
X51592857Y-147152380D01*
X51735714Y-147200000D01*
X51783333Y-147247619D01*
X52259523Y-148152380D02*
X52450000Y-148152380D01*
X52545238Y-148104761D01*
X52592857Y-148057142D01*
X52688095Y-147914285D01*
X52735714Y-147723809D01*
X52735714Y-147342857D01*
X52688095Y-147247619D01*
X52640476Y-147200000D01*
X52545238Y-147152380D01*
X52354761Y-147152380D01*
X52259523Y-147200000D01*
X52211904Y-147247619D01*
X52164285Y-147342857D01*
X52164285Y-147580952D01*
X52211904Y-147676190D01*
X52259523Y-147723809D01*
X52354761Y-147771428D01*
X52545238Y-147771428D01*
X52640476Y-147723809D01*
X52688095Y-147676190D01*
X52735714Y-147580952D01*
%TO.C,J7*%
X51547380Y-170133333D02*
X52261666Y-170133333D01*
X52404523Y-170180952D01*
X52499761Y-170276190D01*
X52547380Y-170419047D01*
X52547380Y-170514285D01*
X51547380Y-169752380D02*
X51547380Y-169085714D01*
X52547380Y-169514285D01*
%TO.C,R4*%
X54422380Y-115676666D02*
X53946190Y-116010000D01*
X54422380Y-116248095D02*
X53422380Y-116248095D01*
X53422380Y-115867142D01*
X53470000Y-115771904D01*
X53517619Y-115724285D01*
X53612857Y-115676666D01*
X53755714Y-115676666D01*
X53850952Y-115724285D01*
X53898571Y-115771904D01*
X53946190Y-115867142D01*
X53946190Y-116248095D01*
X53755714Y-114819523D02*
X54422380Y-114819523D01*
X53374761Y-115057619D02*
X54089047Y-115295714D01*
X54089047Y-114676666D01*
%TO.C,Q1*%
X55554761Y-133297619D02*
X55459523Y-133250000D01*
X55364285Y-133154761D01*
X55221428Y-133011904D01*
X55126190Y-132964285D01*
X55030952Y-132964285D01*
X55078571Y-133202380D02*
X54983333Y-133154761D01*
X54888095Y-133059523D01*
X54840476Y-132869047D01*
X54840476Y-132535714D01*
X54888095Y-132345238D01*
X54983333Y-132250000D01*
X55078571Y-132202380D01*
X55269047Y-132202380D01*
X55364285Y-132250000D01*
X55459523Y-132345238D01*
X55507142Y-132535714D01*
X55507142Y-132869047D01*
X55459523Y-133059523D01*
X55364285Y-133154761D01*
X55269047Y-133202380D01*
X55078571Y-133202380D01*
X56459523Y-133202380D02*
X55888095Y-133202380D01*
X56173809Y-133202380D02*
X56173809Y-132202380D01*
X56078571Y-132345238D01*
X55983333Y-132440476D01*
X55888095Y-132488095D01*
%TO.C,C13*%
X38707142Y-151707142D02*
X38659523Y-151754761D01*
X38516666Y-151802380D01*
X38421428Y-151802380D01*
X38278571Y-151754761D01*
X38183333Y-151659523D01*
X38135714Y-151564285D01*
X38088095Y-151373809D01*
X38088095Y-151230952D01*
X38135714Y-151040476D01*
X38183333Y-150945238D01*
X38278571Y-150850000D01*
X38421428Y-150802380D01*
X38516666Y-150802380D01*
X38659523Y-150850000D01*
X38707142Y-150897619D01*
X39659523Y-151802380D02*
X39088095Y-151802380D01*
X39373809Y-151802380D02*
X39373809Y-150802380D01*
X39278571Y-150945238D01*
X39183333Y-151040476D01*
X39088095Y-151088095D01*
X39992857Y-150802380D02*
X40611904Y-150802380D01*
X40278571Y-151183333D01*
X40421428Y-151183333D01*
X40516666Y-151230952D01*
X40564285Y-151278571D01*
X40611904Y-151373809D01*
X40611904Y-151611904D01*
X40564285Y-151707142D01*
X40516666Y-151754761D01*
X40421428Y-151802380D01*
X40135714Y-151802380D01*
X40040476Y-151754761D01*
X39992857Y-151707142D01*
%TO.C,J2*%
X32216666Y-129502380D02*
X32216666Y-130216666D01*
X32169047Y-130359523D01*
X32073809Y-130454761D01*
X31930952Y-130502380D01*
X31835714Y-130502380D01*
X32645238Y-129597619D02*
X32692857Y-129550000D01*
X32788095Y-129502380D01*
X33026190Y-129502380D01*
X33121428Y-129550000D01*
X33169047Y-129597619D01*
X33216666Y-129692857D01*
X33216666Y-129788095D01*
X33169047Y-129930952D01*
X32597619Y-130502380D01*
X33216666Y-130502380D01*
%TO.C,J1*%
X54502380Y-102883333D02*
X55216666Y-102883333D01*
X55359523Y-102930952D01*
X55454761Y-103026190D01*
X55502380Y-103169047D01*
X55502380Y-103264285D01*
X55502380Y-101883333D02*
X55502380Y-102454761D01*
X55502380Y-102169047D02*
X54502380Y-102169047D01*
X54645238Y-102264285D01*
X54740476Y-102359523D01*
X54788095Y-102454761D01*
%TO.C,C3*%
X34183333Y-129057142D02*
X34135714Y-129104761D01*
X33992857Y-129152380D01*
X33897619Y-129152380D01*
X33754761Y-129104761D01*
X33659523Y-129009523D01*
X33611904Y-128914285D01*
X33564285Y-128723809D01*
X33564285Y-128580952D01*
X33611904Y-128390476D01*
X33659523Y-128295238D01*
X33754761Y-128200000D01*
X33897619Y-128152380D01*
X33992857Y-128152380D01*
X34135714Y-128200000D01*
X34183333Y-128247619D01*
X34516666Y-128152380D02*
X35135714Y-128152380D01*
X34802380Y-128533333D01*
X34945238Y-128533333D01*
X35040476Y-128580952D01*
X35088095Y-128628571D01*
X35135714Y-128723809D01*
X35135714Y-128961904D01*
X35088095Y-129057142D01*
X35040476Y-129104761D01*
X34945238Y-129152380D01*
X34659523Y-129152380D01*
X34564285Y-129104761D01*
X34516666Y-129057142D01*
%TO.C,R7*%
X40633333Y-147702380D02*
X40300000Y-147226190D01*
X40061904Y-147702380D02*
X40061904Y-146702380D01*
X40442857Y-146702380D01*
X40538095Y-146750000D01*
X40585714Y-146797619D01*
X40633333Y-146892857D01*
X40633333Y-147035714D01*
X40585714Y-147130952D01*
X40538095Y-147178571D01*
X40442857Y-147226190D01*
X40061904Y-147226190D01*
X40966666Y-146702380D02*
X41633333Y-146702380D01*
X41204761Y-147702380D01*
%TO.C,C7*%
X83733333Y-151807142D02*
X83685714Y-151854761D01*
X83542857Y-151902380D01*
X83447619Y-151902380D01*
X83304761Y-151854761D01*
X83209523Y-151759523D01*
X83161904Y-151664285D01*
X83114285Y-151473809D01*
X83114285Y-151330952D01*
X83161904Y-151140476D01*
X83209523Y-151045238D01*
X83304761Y-150950000D01*
X83447619Y-150902380D01*
X83542857Y-150902380D01*
X83685714Y-150950000D01*
X83733333Y-150997619D01*
X84066666Y-150902380D02*
X84733333Y-150902380D01*
X84304761Y-151902380D01*
%TO.C,C12*%
X51907142Y-122257142D02*
X51859523Y-122304761D01*
X51716666Y-122352380D01*
X51621428Y-122352380D01*
X51478571Y-122304761D01*
X51383333Y-122209523D01*
X51335714Y-122114285D01*
X51288095Y-121923809D01*
X51288095Y-121780952D01*
X51335714Y-121590476D01*
X51383333Y-121495238D01*
X51478571Y-121400000D01*
X51621428Y-121352380D01*
X51716666Y-121352380D01*
X51859523Y-121400000D01*
X51907142Y-121447619D01*
X52859523Y-122352380D02*
X52288095Y-122352380D01*
X52573809Y-122352380D02*
X52573809Y-121352380D01*
X52478571Y-121495238D01*
X52383333Y-121590476D01*
X52288095Y-121638095D01*
X53240476Y-121447619D02*
X53288095Y-121400000D01*
X53383333Y-121352380D01*
X53621428Y-121352380D01*
X53716666Y-121400000D01*
X53764285Y-121447619D01*
X53811904Y-121542857D01*
X53811904Y-121638095D01*
X53764285Y-121780952D01*
X53192857Y-122352380D01*
X53811904Y-122352380D01*
%TO.C,U3*%
X40958095Y-135112380D02*
X40958095Y-135921904D01*
X41005714Y-136017142D01*
X41053333Y-136064761D01*
X41148571Y-136112380D01*
X41339047Y-136112380D01*
X41434285Y-136064761D01*
X41481904Y-136017142D01*
X41529523Y-135921904D01*
X41529523Y-135112380D01*
X41910476Y-135112380D02*
X42529523Y-135112380D01*
X42196190Y-135493333D01*
X42339047Y-135493333D01*
X42434285Y-135540952D01*
X42481904Y-135588571D01*
X42529523Y-135683809D01*
X42529523Y-135921904D01*
X42481904Y-136017142D01*
X42434285Y-136064761D01*
X42339047Y-136112380D01*
X42053333Y-136112380D01*
X41958095Y-136064761D01*
X41910476Y-136017142D01*
%TO.C,U4*%
X69338095Y-134202380D02*
X69338095Y-135011904D01*
X69385714Y-135107142D01*
X69433333Y-135154761D01*
X69528571Y-135202380D01*
X69719047Y-135202380D01*
X69814285Y-135154761D01*
X69861904Y-135107142D01*
X69909523Y-135011904D01*
X69909523Y-134202380D01*
X70814285Y-134535714D02*
X70814285Y-135202380D01*
X70576190Y-134154761D02*
X70338095Y-134869047D01*
X70957142Y-134869047D01*
%TO.C,C11*%
X53057142Y-144507142D02*
X53009523Y-144554761D01*
X52866666Y-144602380D01*
X52771428Y-144602380D01*
X52628571Y-144554761D01*
X52533333Y-144459523D01*
X52485714Y-144364285D01*
X52438095Y-144173809D01*
X52438095Y-144030952D01*
X52485714Y-143840476D01*
X52533333Y-143745238D01*
X52628571Y-143650000D01*
X52771428Y-143602380D01*
X52866666Y-143602380D01*
X53009523Y-143650000D01*
X53057142Y-143697619D01*
X54009523Y-144602380D02*
X53438095Y-144602380D01*
X53723809Y-144602380D02*
X53723809Y-143602380D01*
X53628571Y-143745238D01*
X53533333Y-143840476D01*
X53438095Y-143888095D01*
X54961904Y-144602380D02*
X54390476Y-144602380D01*
X54676190Y-144602380D02*
X54676190Y-143602380D01*
X54580952Y-143745238D01*
X54485714Y-143840476D01*
X54390476Y-143888095D01*
%TO.C,J6*%
X93766666Y-119742380D02*
X93766666Y-120456666D01*
X93719047Y-120599523D01*
X93623809Y-120694761D01*
X93480952Y-120742380D01*
X93385714Y-120742380D01*
X94671428Y-119742380D02*
X94480952Y-119742380D01*
X94385714Y-119790000D01*
X94338095Y-119837619D01*
X94242857Y-119980476D01*
X94195238Y-120170952D01*
X94195238Y-120551904D01*
X94242857Y-120647142D01*
X94290476Y-120694761D01*
X94385714Y-120742380D01*
X94576190Y-120742380D01*
X94671428Y-120694761D01*
X94719047Y-120647142D01*
X94766666Y-120551904D01*
X94766666Y-120313809D01*
X94719047Y-120218571D01*
X94671428Y-120170952D01*
X94576190Y-120123333D01*
X94385714Y-120123333D01*
X94290476Y-120170952D01*
X94242857Y-120218571D01*
X94195238Y-120313809D01*
%TO.C,U1*%
X66902380Y-128261904D02*
X67711904Y-128261904D01*
X67807142Y-128214285D01*
X67854761Y-128166666D01*
X67902380Y-128071428D01*
X67902380Y-127880952D01*
X67854761Y-127785714D01*
X67807142Y-127738095D01*
X67711904Y-127690476D01*
X66902380Y-127690476D01*
X67902380Y-126690476D02*
X67902380Y-127261904D01*
X67902380Y-126976190D02*
X66902380Y-126976190D01*
X67045238Y-127071428D01*
X67140476Y-127166666D01*
X67188095Y-127261904D01*
%TO.C,C10*%
X80907142Y-151807142D02*
X80859523Y-151854761D01*
X80716666Y-151902380D01*
X80621428Y-151902380D01*
X80478571Y-151854761D01*
X80383333Y-151759523D01*
X80335714Y-151664285D01*
X80288095Y-151473809D01*
X80288095Y-151330952D01*
X80335714Y-151140476D01*
X80383333Y-151045238D01*
X80478571Y-150950000D01*
X80621428Y-150902380D01*
X80716666Y-150902380D01*
X80859523Y-150950000D01*
X80907142Y-150997619D01*
X81859523Y-151902380D02*
X81288095Y-151902380D01*
X81573809Y-151902380D02*
X81573809Y-150902380D01*
X81478571Y-151045238D01*
X81383333Y-151140476D01*
X81288095Y-151188095D01*
X82478571Y-150902380D02*
X82573809Y-150902380D01*
X82669047Y-150950000D01*
X82716666Y-150997619D01*
X82764285Y-151092857D01*
X82811904Y-151283333D01*
X82811904Y-151521428D01*
X82764285Y-151711904D01*
X82716666Y-151807142D01*
X82669047Y-151854761D01*
X82573809Y-151902380D01*
X82478571Y-151902380D01*
X82383333Y-151854761D01*
X82335714Y-151807142D01*
X82288095Y-151711904D01*
X82240476Y-151521428D01*
X82240476Y-151283333D01*
X82288095Y-151092857D01*
X82335714Y-150997619D01*
X82383333Y-150950000D01*
X82478571Y-150902380D01*
%TO.C,C4*%
X47927142Y-138801666D02*
X47974761Y-138849285D01*
X48022380Y-138992142D01*
X48022380Y-139087380D01*
X47974761Y-139230238D01*
X47879523Y-139325476D01*
X47784285Y-139373095D01*
X47593809Y-139420714D01*
X47450952Y-139420714D01*
X47260476Y-139373095D01*
X47165238Y-139325476D01*
X47070000Y-139230238D01*
X47022380Y-139087380D01*
X47022380Y-138992142D01*
X47070000Y-138849285D01*
X47117619Y-138801666D01*
X47355714Y-137944523D02*
X48022380Y-137944523D01*
X46974761Y-138182619D02*
X47689047Y-138420714D01*
X47689047Y-137801666D01*
%TO.C,R5*%
X37833333Y-134002380D02*
X37500000Y-133526190D01*
X37261904Y-134002380D02*
X37261904Y-133002380D01*
X37642857Y-133002380D01*
X37738095Y-133050000D01*
X37785714Y-133097619D01*
X37833333Y-133192857D01*
X37833333Y-133335714D01*
X37785714Y-133430952D01*
X37738095Y-133478571D01*
X37642857Y-133526190D01*
X37261904Y-133526190D01*
X38738095Y-133002380D02*
X38261904Y-133002380D01*
X38214285Y-133478571D01*
X38261904Y-133430952D01*
X38357142Y-133383333D01*
X38595238Y-133383333D01*
X38690476Y-133430952D01*
X38738095Y-133478571D01*
X38785714Y-133573809D01*
X38785714Y-133811904D01*
X38738095Y-133907142D01*
X38690476Y-133954761D01*
X38595238Y-134002380D01*
X38357142Y-134002380D01*
X38261904Y-133954761D01*
X38214285Y-133907142D01*
%TO.C,C2*%
X79183333Y-124557142D02*
X79135714Y-124604761D01*
X78992857Y-124652380D01*
X78897619Y-124652380D01*
X78754761Y-124604761D01*
X78659523Y-124509523D01*
X78611904Y-124414285D01*
X78564285Y-124223809D01*
X78564285Y-124080952D01*
X78611904Y-123890476D01*
X78659523Y-123795238D01*
X78754761Y-123700000D01*
X78897619Y-123652380D01*
X78992857Y-123652380D01*
X79135714Y-123700000D01*
X79183333Y-123747619D01*
X79564285Y-123747619D02*
X79611904Y-123700000D01*
X79707142Y-123652380D01*
X79945238Y-123652380D01*
X80040476Y-123700000D01*
X80088095Y-123747619D01*
X80135714Y-123842857D01*
X80135714Y-123938095D01*
X80088095Y-124080952D01*
X79516666Y-124652380D01*
X80135714Y-124652380D01*
%TO.C,C1*%
X36883333Y-136507142D02*
X36835714Y-136554761D01*
X36692857Y-136602380D01*
X36597619Y-136602380D01*
X36454761Y-136554761D01*
X36359523Y-136459523D01*
X36311904Y-136364285D01*
X36264285Y-136173809D01*
X36264285Y-136030952D01*
X36311904Y-135840476D01*
X36359523Y-135745238D01*
X36454761Y-135650000D01*
X36597619Y-135602380D01*
X36692857Y-135602380D01*
X36835714Y-135650000D01*
X36883333Y-135697619D01*
X37835714Y-136602380D02*
X37264285Y-136602380D01*
X37550000Y-136602380D02*
X37550000Y-135602380D01*
X37454761Y-135745238D01*
X37359523Y-135840476D01*
X37264285Y-135888095D01*
D11*
%TO.C,PHOTO1*%
X43619771Y-112811971D02*
X43619771Y-112202371D01*
X43852000Y-112202371D01*
X43910057Y-112231400D01*
X43939085Y-112260428D01*
X43968114Y-112318485D01*
X43968114Y-112405571D01*
X43939085Y-112463628D01*
X43910057Y-112492657D01*
X43852000Y-112521685D01*
X43619771Y-112521685D01*
X44229371Y-112811971D02*
X44229371Y-112202371D01*
X44229371Y-112492657D02*
X44577714Y-112492657D01*
X44577714Y-112811971D02*
X44577714Y-112202371D01*
X44984114Y-112202371D02*
X45100228Y-112202371D01*
X45158285Y-112231400D01*
X45216342Y-112289457D01*
X45245371Y-112405571D01*
X45245371Y-112608771D01*
X45216342Y-112724885D01*
X45158285Y-112782942D01*
X45100228Y-112811971D01*
X44984114Y-112811971D01*
X44926057Y-112782942D01*
X44868000Y-112724885D01*
X44838971Y-112608771D01*
X44838971Y-112405571D01*
X44868000Y-112289457D01*
X44926057Y-112231400D01*
X44984114Y-112202371D01*
X45419542Y-112202371D02*
X45767885Y-112202371D01*
X45593714Y-112811971D02*
X45593714Y-112202371D01*
X46087200Y-112202371D02*
X46203314Y-112202371D01*
X46261371Y-112231400D01*
X46319428Y-112289457D01*
X46348457Y-112405571D01*
X46348457Y-112608771D01*
X46319428Y-112724885D01*
X46261371Y-112782942D01*
X46203314Y-112811971D01*
X46087200Y-112811971D01*
X46029142Y-112782942D01*
X45971085Y-112724885D01*
X45942057Y-112608771D01*
X45942057Y-112405571D01*
X45971085Y-112289457D01*
X46029142Y-112231400D01*
X46087200Y-112202371D01*
X46958057Y-112753914D02*
X46929028Y-112782942D01*
X46841942Y-112811971D01*
X46783885Y-112811971D01*
X46696800Y-112782942D01*
X46638742Y-112724885D01*
X46609714Y-112666828D01*
X46580685Y-112550714D01*
X46580685Y-112463628D01*
X46609714Y-112347514D01*
X46638742Y-112289457D01*
X46696800Y-112231400D01*
X46783885Y-112202371D01*
X46841942Y-112202371D01*
X46929028Y-112231400D01*
X46958057Y-112260428D01*
X47219314Y-112492657D02*
X47422514Y-112492657D01*
X47509600Y-112811971D02*
X47219314Y-112811971D01*
X47219314Y-112202371D01*
X47509600Y-112202371D01*
X48061142Y-112811971D02*
X47770857Y-112811971D01*
X47770857Y-112202371D01*
X48554628Y-112811971D02*
X48264342Y-112811971D01*
X48264342Y-112202371D01*
X48757828Y-112811971D02*
X48757828Y-112202371D01*
X48990057Y-112202371D01*
X49048114Y-112231400D01*
X49077142Y-112260428D01*
X49106171Y-112318485D01*
X49106171Y-112405571D01*
X49077142Y-112463628D01*
X49048114Y-112492657D01*
X48990057Y-112521685D01*
X48757828Y-112521685D01*
X49280342Y-112202371D02*
X49628685Y-112202371D01*
X49454514Y-112811971D02*
X49454514Y-112202371D01*
X49831885Y-112811971D02*
X49831885Y-112202371D01*
X49831885Y-112492657D02*
X50180228Y-112492657D01*
X50180228Y-112811971D02*
X50180228Y-112202371D01*
D10*
%TO.C,C5*%
X80387142Y-128666666D02*
X80434761Y-128714285D01*
X80482380Y-128857142D01*
X80482380Y-128952380D01*
X80434761Y-129095238D01*
X80339523Y-129190476D01*
X80244285Y-129238095D01*
X80053809Y-129285714D01*
X79910952Y-129285714D01*
X79720476Y-129238095D01*
X79625238Y-129190476D01*
X79530000Y-129095238D01*
X79482380Y-128952380D01*
X79482380Y-128857142D01*
X79530000Y-128714285D01*
X79577619Y-128666666D01*
X79482380Y-127761904D02*
X79482380Y-128238095D01*
X79958571Y-128285714D01*
X79910952Y-128238095D01*
X79863333Y-128142857D01*
X79863333Y-127904761D01*
X79910952Y-127809523D01*
X79958571Y-127761904D01*
X80053809Y-127714285D01*
X80291904Y-127714285D01*
X80387142Y-127761904D01*
X80434761Y-127809523D01*
X80482380Y-127904761D01*
X80482380Y-128142857D01*
X80434761Y-128238095D01*
X80387142Y-128285714D01*
%TO.C,Q2*%
X51347619Y-142195238D02*
X51300000Y-142290476D01*
X51204761Y-142385714D01*
X51061904Y-142528571D01*
X51014285Y-142623809D01*
X51014285Y-142719047D01*
X51252380Y-142671428D02*
X51204761Y-142766666D01*
X51109523Y-142861904D01*
X50919047Y-142909523D01*
X50585714Y-142909523D01*
X50395238Y-142861904D01*
X50300000Y-142766666D01*
X50252380Y-142671428D01*
X50252380Y-142480952D01*
X50300000Y-142385714D01*
X50395238Y-142290476D01*
X50585714Y-142242857D01*
X50919047Y-142242857D01*
X51109523Y-142290476D01*
X51204761Y-142385714D01*
X51252380Y-142480952D01*
X51252380Y-142671428D01*
X50347619Y-141861904D02*
X50300000Y-141814285D01*
X50252380Y-141719047D01*
X50252380Y-141480952D01*
X50300000Y-141385714D01*
X50347619Y-141338095D01*
X50442857Y-141290476D01*
X50538095Y-141290476D01*
X50680952Y-141338095D01*
X51252380Y-141909523D01*
X51252380Y-141290476D01*
D12*
%TO.C,F1*%
X83152064Y-124435000D02*
X81947936Y-124435000D01*
X83152064Y-126255000D02*
X81947936Y-126255000D01*
%TO.C,J8*%
X73300000Y-122300000D02*
X58600000Y-122300000D01*
X59450000Y-122500000D02*
X58400000Y-122500000D01*
X58600000Y-115800000D02*
X58600000Y-113100000D01*
X58400000Y-121450000D02*
X58400000Y-122500000D01*
X58600000Y-122300000D02*
X58600000Y-119700000D01*
X58600000Y-113100000D02*
X60500000Y-113100000D01*
X64500000Y-113100000D02*
X73300000Y-113100000D01*
X73300000Y-113100000D02*
X73300000Y-122300000D01*
%TO.C,J4*%
X43725000Y-103830000D02*
X42395000Y-103830000D01*
X44995000Y-101170000D02*
X47595000Y-101170000D01*
X42395000Y-103830000D02*
X42395000Y-102500000D01*
X44995000Y-103830000D02*
X44995000Y-101170000D01*
X47595000Y-103830000D02*
X47595000Y-101170000D01*
X44995000Y-103830000D02*
X47595000Y-103830000D01*
%TO.C,U2*%
X38871500Y-123838500D02*
X41792500Y-123838500D01*
X38871500Y-124854500D02*
X38871500Y-123838500D01*
X34807500Y-123838500D02*
X37728500Y-123838500D01*
X41792500Y-123838500D02*
X41792500Y-117361500D01*
X41030500Y-124321100D02*
X41030500Y-125387900D01*
X36458500Y-124321100D02*
X36458500Y-125387900D01*
X40141500Y-124321100D02*
X40141500Y-125387900D01*
X41792500Y-117361500D02*
X41414040Y-117361500D01*
X37728500Y-123838500D02*
X37728500Y-124854500D01*
X35569500Y-124321100D02*
X35569500Y-125387900D01*
X35185960Y-117361500D02*
X34807500Y-117361500D01*
X37728500Y-124854500D02*
X38871500Y-124854500D01*
X34807500Y-117361500D02*
X34807500Y-123838500D01*
%TO.C,U6*%
X53890000Y-152110000D02*
X54365000Y-152110000D01*
X58110000Y-152110000D02*
X57635000Y-152110000D01*
X53890000Y-151635000D02*
X53890000Y-152110000D01*
X53890000Y-147890000D02*
X54365000Y-147890000D01*
X58110000Y-148365000D02*
X58110000Y-147890000D01*
X58110000Y-151635000D02*
X58110000Y-152110000D01*
X53890000Y-148365000D02*
X53890000Y-147890000D01*
%TO.C,R3*%
X52346359Y-138840000D02*
X52653641Y-138840000D01*
X52346359Y-138080000D02*
X52653641Y-138080000D01*
%TO.C,FB1*%
X57010000Y-140800378D02*
X57010000Y-141599622D01*
X55890000Y-140800378D02*
X55890000Y-141599622D01*
%TO.C,J3*%
X31270000Y-140430000D02*
X31270000Y-137830000D01*
X33930000Y-140430000D02*
X31270000Y-140430000D01*
X33930000Y-141700000D02*
X33930000Y-143030000D01*
X33930000Y-140430000D02*
X33930000Y-137830000D01*
X33930000Y-143030000D02*
X32600000Y-143030000D01*
X33930000Y-137830000D02*
X31270000Y-137830000D01*
D10*
%TO.C,J5*%
X45895000Y-158345000D02*
X45895000Y-159745000D01*
X51845000Y-156595000D02*
X52845000Y-156595000D01*
X45895000Y-162145000D02*
X45895000Y-162295000D01*
X54195000Y-162295000D02*
X54195000Y-162145000D01*
X48245000Y-156170000D02*
X48245000Y-156595000D01*
X48245000Y-156595000D02*
X47245000Y-156595000D01*
X53895000Y-162745000D02*
X53895000Y-162295000D01*
X48970000Y-156170000D02*
X48245000Y-156170000D01*
X54195000Y-159745000D02*
X54195000Y-158345000D01*
X53895000Y-162295000D02*
X54195000Y-162295000D01*
X46195000Y-162295000D02*
X46195000Y-162745000D01*
X45895000Y-162295000D02*
X46195000Y-162295000D01*
D12*
%TO.C,C8*%
X49115000Y-149738748D02*
X49115000Y-150261252D01*
X50585000Y-149738748D02*
X50585000Y-150261252D01*
%TO.C,R6*%
X52403641Y-120230000D02*
X52096359Y-120230000D01*
X52403641Y-119470000D02*
X52096359Y-119470000D01*
%TO.C,R2*%
X50553641Y-138080000D02*
X50246359Y-138080000D01*
X50553641Y-138840000D02*
X50246359Y-138840000D01*
%TO.C,C9*%
X51265000Y-149738748D02*
X51265000Y-150261252D01*
X52735000Y-149738748D02*
X52735000Y-150261252D01*
%TO.C,J7*%
X54425000Y-171130000D02*
X53095000Y-171130000D01*
X55695000Y-168470000D02*
X83695000Y-168470000D01*
X53095000Y-171130000D02*
X53095000Y-169800000D01*
X55695000Y-171130000D02*
X83695000Y-171130000D01*
X83695000Y-171130000D02*
X83695000Y-168470000D01*
X55695000Y-171130000D02*
X55695000Y-168470000D01*
%TO.C,SW1*%
X34770000Y-145450000D02*
X33980000Y-145450000D01*
X32970000Y-147500000D02*
X31680000Y-147500000D01*
X31470000Y-147700000D02*
X31470000Y-148600000D01*
X33980000Y-152350000D02*
X34770000Y-152350000D01*
X31680000Y-148800000D02*
X31470000Y-148600000D01*
X32970000Y-146050000D02*
X32970000Y-151750000D01*
X35820000Y-150300000D02*
X35820000Y-150500000D01*
X35820000Y-147300000D02*
X35820000Y-149000000D01*
X31680000Y-148800000D02*
X32970000Y-148800000D01*
X31680000Y-147500000D02*
X31470000Y-147700000D01*
%TO.C,R4*%
X52420000Y-115356359D02*
X52420000Y-115663641D01*
X53180000Y-115356359D02*
X53180000Y-115663641D01*
%TO.C,Q1*%
X54040000Y-135400000D02*
X54040000Y-137075000D01*
X57160000Y-135400000D02*
X57160000Y-136050000D01*
X57160000Y-135400000D02*
X57160000Y-134750000D01*
X54040000Y-135400000D02*
X54040000Y-134750000D01*
D13*
%TO.C,U5*%
X42073900Y-129800000D02*
G75*
G03*
X53326100Y-129800000I5626100J0D01*
G01*
X53326100Y-129800000D02*
G75*
G03*
X42073900Y-129800000I-5626100J0D01*
G01*
D12*
%TO.C,C13*%
X39138748Y-148965000D02*
X39661252Y-148965000D01*
X39138748Y-150435000D02*
X39661252Y-150435000D01*
%TO.C,J2*%
X33930000Y-136430000D02*
X32600000Y-136430000D01*
X33930000Y-135100000D02*
X33930000Y-136430000D01*
X33930000Y-133830000D02*
X33930000Y-131230000D01*
X33930000Y-131230000D02*
X31270000Y-131230000D01*
X33930000Y-133830000D02*
X31270000Y-133830000D01*
X31270000Y-133830000D02*
X31270000Y-131230000D01*
%TO.C,J1*%
X51320000Y-103830000D02*
X51320000Y-101170000D01*
X48720000Y-103830000D02*
X48720000Y-102500000D01*
X51320000Y-101170000D02*
X53920000Y-101170000D01*
X53920000Y-103830000D02*
X53920000Y-101170000D01*
X50050000Y-103830000D02*
X48720000Y-103830000D01*
X51320000Y-103830000D02*
X53920000Y-103830000D01*
%TO.C,C3*%
X36659420Y-128948900D02*
X36940580Y-128948900D01*
X36659420Y-129968900D02*
X36940580Y-129968900D01*
%TO.C,R7*%
X39053641Y-146820000D02*
X38746359Y-146820000D01*
X39053641Y-147580000D02*
X38746359Y-147580000D01*
%TO.C,C7*%
X82765000Y-153493748D02*
X82765000Y-154016252D01*
X84235000Y-153493748D02*
X84235000Y-154016252D01*
%TO.C,U3*%
X41720000Y-139620000D02*
X42520000Y-139620000D01*
X41720000Y-136500000D02*
X39920000Y-136500000D01*
X41720000Y-139620000D02*
X40920000Y-139620000D01*
X41720000Y-136500000D02*
X42520000Y-136500000D01*
%TO.C,U4*%
X79220000Y-136120000D02*
X78220000Y-136120000D01*
X60980000Y-136900000D02*
X60980000Y-136120000D01*
X79220000Y-161865000D02*
X79220000Y-155445000D01*
X79220000Y-155445000D02*
X79600000Y-155445000D01*
X79220000Y-161865000D02*
X60980000Y-161865000D01*
X60980000Y-161865000D02*
X60980000Y-155445000D01*
X60980000Y-136120000D02*
X61980000Y-136120000D01*
X79220000Y-136900000D02*
X79220000Y-136120000D01*
%TO.C,C11*%
X54061252Y-146535000D02*
X53538748Y-146535000D01*
X54061252Y-145065000D02*
X53538748Y-145065000D01*
%TO.C,J6*%
X92770000Y-122620000D02*
X92770000Y-121290000D01*
X92770000Y-123890000D02*
X95430000Y-123890000D01*
X92770000Y-162050000D02*
X95430000Y-162050000D01*
X95430000Y-123890000D02*
X95430000Y-162050000D01*
X92770000Y-123890000D02*
X92770000Y-162050000D01*
X92770000Y-121290000D02*
X94100000Y-121290000D01*
%TO.C,U1*%
X70690000Y-124190000D02*
X70690000Y-125450000D01*
X70690000Y-131010000D02*
X70690000Y-129750000D01*
X74450000Y-124190000D02*
X70690000Y-124190000D01*
X76700000Y-131010000D02*
X70690000Y-131010000D01*
%TO.C,C10*%
X80665000Y-153493748D02*
X80665000Y-154016252D01*
X82135000Y-153493748D02*
X82135000Y-154016252D01*
%TO.C,C4*%
X46630000Y-137923748D02*
X46630000Y-139346252D01*
X44810000Y-137923748D02*
X44810000Y-139346252D01*
%TO.C,R5*%
X36872936Y-132610000D02*
X38327064Y-132610000D01*
X36872936Y-130790000D02*
X38327064Y-130790000D01*
%TO.C,C2*%
X78877836Y-124940000D02*
X78662164Y-124940000D01*
X78877836Y-125660000D02*
X78662164Y-125660000D01*
%TO.C,C1*%
X37736252Y-139010000D02*
X36313748Y-139010000D01*
X37736252Y-137190000D02*
X36313748Y-137190000D01*
%TO.C,D1*%
X34355000Y-160015000D02*
X37445000Y-160015000D01*
X37444830Y-160015000D02*
G75*
G03*
X35899538Y-154465000I-1544830J2560000D01*
G01*
X35900462Y-154465000D02*
G75*
G03*
X34355170Y-160015000I-462J-2990000D01*
G01*
X38400000Y-157455000D02*
G75*
G03*
X38400000Y-157455000I-2500000J0D01*
G01*
D14*
%TO.C,PHOTO1*%
X47898220Y-116998980D02*
X45901780Y-116998980D01*
X45901780Y-113001020D02*
X47898220Y-113001020D01*
X49098480Y-113871504D02*
G75*
G03*
X47898220Y-113001020I-1192638J-381733D01*
G01*
X44701520Y-116128496D02*
G75*
G03*
X45901780Y-116998980I1192638J381733D01*
G01*
X45901490Y-113002556D02*
G75*
G03*
X44702900Y-113872240I-7329J-1250685D01*
G01*
X47898510Y-116997444D02*
G75*
G03*
X49097100Y-116127760I7329J1250685D01*
G01*
D12*
%TO.C,C5*%
X79085000Y-128238748D02*
X79085000Y-128761252D01*
X77615000Y-128238748D02*
X77615000Y-128761252D01*
%TO.C,Q2*%
X51590000Y-141305000D02*
X51590000Y-140655000D01*
X54710000Y-141305000D02*
X54710000Y-141955000D01*
X54710000Y-141305000D02*
X54710000Y-139630000D01*
X51590000Y-141305000D02*
X51590000Y-141955000D01*
%TD*%
M02*
